
    <svg
      width="224"
      height="324"
      viewBox="0 0 224 324"
      fill="none"
      xmlns="http://www.w3.org/2000/svg">
      <path
        d="M6.7937 119.055C8.1885 116.49 9.4252 113.479 13.8259 119.386L38.2086 121.548C39.2635 119.993 42.9872 117.774 41.3539 117.01C39.2807 116.039 38.8231 113.595 37.0786 113.047C29.1387 110.552 43.5361 88.396 48.8182 83.7671C52.309 80.708 65.5919 69.7854 67.6652 74.1263C69.4185 77.7972 69.1574 79.365 72.9808 80.3604C77.2497 81.4718 106.338 78.2788 106.455 82.5091C106.505 84.2957 107.504 87.167 109.867 86.855C111.103 86.6918 112.435 86.5316 113.844 86.406C115.322 86.2742 115.719 85.1869 116.747 83.3663C117.125 82.6975 117.254 81.3628 118.372 81.2602C126.357 80.5284 137.718 82.7371 146.478 80.5117C149.028 79.8639 152.135 80.5461 154.155 79.1184C155.925 77.8674 157.125 74.5458 158.605 73.402C159.629 72.6105 160.858 73.5724 162.211 74.0649C175.72 78.984 180.58 91.0865 182.852 92.8095C184.565 94.1085 193.239 108.547 189.793 112.05C189.489 112.359 182.643 116.044 184.215 120.383C185.53 124.01 196.189 119.617 206.4 120.24C210.977 120.52 214.336 116.863 215.492 114.706C216.246 113.302 217.752 120.12 217.927 121.264C218.592 125.612 220.632 135.03 220.473 142.626C220.366 147.74 222.159 151.847 218.885 153.634C210.78 158.058 206.068 162.268 202.914 171.14C199.314 181.269 209.697 193.618 219.659 197.478C225.107 199.589 196.247 245.454 193.146 246.806C191.781 247.401 191.993 245.37 191.04 243.822C190.28 242.588 175.971 245.574 170.609 258.599C169 262.507 171.442 264.691 165.762 268.082C163.697 269.315 153.842 274.6 151.897 275.241C150.301 275.768 144.677 278.5 138.008 280.373C134.696 281.303 130.543 284.491 127.651 282.2C122.283 277.95 114.038 274.476 101.71 278.811C99.442 279.609 96.8633 282.912 94.8313 282.641C91.1359 282.147 75.343 278.767 64.8931 271.682C61.3981 269.312 56.8023 269.555 55.726 265.309C54.3313 259.805 51.4582 252.955 47.4564 249.691C45.8436 248.375 44.3358 247.133 42.965 245.992C37.9299 241.802 29.4283 244.542 29.1865 244.54C25.3801 244.5 10.2272 219.169 6.39051 203.908C4.47071 196.272 9.00466 191.591 11.9623 192.993C12.3756 193.189 16.0067 189.597 19.7132 186.354C22.1958 184.182 21.0417 177.539 22.6478 176.922C30.4291 173.933 38.2152 184.319 37.6234 195.436C36.6179 214.324 59.6065 252.735 62.2119 254.239C73.7528 260.901 84.9068 267.315 86.4026 267.763C95.6911 270.543 111.963 276.035 126.73 272.017C131.872 270.617 146.806 267.333 148.029 264.274C150.384 258.384 162.055 253.734 168.194 246.124C171.342 242.223 174.035 239.301 176.376 234.521C183.553 219.87 185.591 209.004 186.848 201.406C188.662 190.44 187.835 177.4 189.159 163.085C189.492 159.476 187.571 155.026 186.711 149.345C185.983 144.536 185.858 138.255 182.479 132.576C176.464 122.465 172.05 114.767 171.004 113.932C167.795 111.372 164.799 104.48 158.549 102.448C151.404 100.124 142.954 96.8071 132.978 92.2495C129.356 90.5948 123.609 90.1888 118.682 90.4769C111.627 90.8893 103.51 91.3254 94.2188 91.7869C79.4588 98.0775 69.1692 91.9901 43.9781 127.163L35.7533 154.912V235.487H22.3663C22.6212 216.685 23.8101 198.037 22.4457 178.965C22.2847 176.714 22.0881 174.458 21.8503 172.195C20.8125 162.319 13.2927 158.338 6.34054 153.548C3.78609 151.788 5.19218 146.094 4.89701 139.712C4.38758 128.697 8.78762 120.613 6.7937 119.055Z"
        fill="white"
      />
      <path
        d="M112.785 91.4151C133.769 88.7875 149.548 98.6279 165.524 107.997C166.567 111.53 185.882 117.769 189.865 173.36H112.785V91.4151Z"
        fill="#F1BF00"
      />
      <path
        d="M135.148 233.692H139.143L139.196 242.98L135.201 241.458L135.148 233.692Z"
        fill="#FFB380"
      />
      <path
        d="M133.781 229.39L140.247 229.023L141.825 234.217C138.599 236.045 136.186 235.302 133.781 234.532V229.39Z"
        fill="#FFB380"
      />
      <path
        d="M150.374 199.791C152.364 200.839 151.676 208.229 150.16 213.666C148.132 220.937 150.264 224.433 143.936 224.197C133.029 223.792 137.761 211.36 144.893 205.277C150.168 200.777 148.694 198.95 150.374 199.791Z"
        fill="#904B12"
      />
      <path
        d="M151.876 218.524C151.876 221.085 150.946 222.697 150.054 223.162C147.659 224.41 147.733 221.534 148.233 218.524C148.652 215.997 149.048 213.886 150.054 213.886C151.06 213.886 151.876 215.963 151.876 218.524Z"
        fill="#904B12"
      />
      <path
        fill-rule="evenodd"
        clip-rule="evenodd"
        d="M172.247 192.237C181.6 166.369 140.137 177.32 117.429 189.34L114.806 221.91C114.806 221.91 122.962 256.593 139.755 248.182C146.079 258.836 153.668 248.994 160.911 234.448C172.074 223.77 168.552 205.407 173.635 192.694L172.247 192.237ZM131.252 219.374C132.305 218.871 133.435 218.804 133.779 219.225C134.123 219.645 133.547 220.393 132.494 220.897C131.443 221.401 130.312 221.467 129.97 221.047C129.629 220.628 130.203 219.878 131.252 219.374ZM157.1 221.734L160.495 224.152C160.495 224.152 162.573 222.633 161.037 221.18C159.683 220.599 158.37 220.783 157.1 221.734ZM140.151 228.629C140.151 228.629 141.379 229.373 141.662 230.243L156.08 230.025C156.08 230.18 157.285 230.043 157.971 230.123C158.055 230.128 159.385 229.903 159.32 230.243L159.425 230.033L160.264 228.557L140.151 228.629ZM122.105 228.388L123.708 232.162H124.013C124.013 232.162 125.052 234.138 125.242 235.283C125.242 235.283 128.178 232.087 129.67 230.55C129.67 230.55 130.34 229.604 132.911 230.155C132.911 230.155 133.014 228.184 135.38 229.013L135.79 228.698L126.688 228.54L122.105 228.388ZM159.504 231.319H151.504C146.348 236.642 139.927 239.706 139.927 239.706L140.031 242.288C140.139 243.819 138.242 242.368 138.242 242.368C138.242 242.368 138.559 236.964 139.084 234.787L141.507 233.336C141.507 233.336 139.507 233.093 140.244 230.433C140.244 230.433 140.139 228.496 138.559 229.868C138.559 229.868 136.873 228.98 136.138 229.948C136.138 229.948 134.244 229.303 134.348 230.673C134.348 230.673 133.822 233.899 135.505 234.222C135.505 234.222 136.243 234.706 135.402 236.4C135.402 236.4 134.665 240.03 135.612 241.642C135.612 241.642 133.822 241.56 133.822 240.674L133.613 239.465L128.77 237.367C125.699 240.539 137.319 251.237 146.286 247.944C146.286 247.944 152.969 243.14 160.679 231.488C160.838 231.261 159.487 231.551 159.504 231.319ZM132.564 233.647C132.564 233.647 133.131 234.607 134.075 235.113C134.075 235.113 133.508 237.215 133.793 238.445C133.793 238.445 131.467 238.754 129.213 236.562C130.126 235.273 131.241 234.3 132.564 233.647ZM139.961 235.331L139.772 238.662C139.772 238.662 145.917 235.693 149.344 231.474H146.886L145.752 233.067L143.648 233.14C142.213 234.506 140.985 235.236 139.961 235.331ZM145.39 207.776C145.39 207.776 143.676 210.176 146.149 209.438C146.149 209.438 147.038 208.806 147.673 209.923C147.673 209.923 147.673 210.75 149.449 209.876C149.449 209.876 151.796 209.428 150.844 207.921C150.844 207.921 149.13 206.377 149.639 205.054C149.639 205.054 149.765 204.276 150.526 205.636C150.526 205.636 150.894 206.027 151.224 206.756C151.224 206.756 151.605 206.065 149.893 203.489C149.893 203.489 149.703 202.275 150.019 202.275C150.019 202.275 150.335 202.168 150.782 203.149C150.782 203.149 150.907 201.301 150.464 201.01C150.464 201.01 149.703 199.551 148.941 200.719C148.941 200.719 148.624 201.448 149.323 201.448C149.323 201.448 149.765 202.235 147.546 203.985C147.546 203.985 146.149 204.908 147.736 204.86C147.701 205.574 146.919 206.547 145.39 207.776ZM142.848 214.974C142.848 214.974 136.167 219.659 138.083 220.731L139.327 221.445C139.533 219.732 140.707 217.574 142.848 214.974ZM143.822 216.439C143.822 216.439 139.878 221.877 142.213 222.235C143.634 222.47 144.171 220.538 143.822 216.439ZM146.883 213.025C146.883 213.025 145.278 214.254 145.589 218.939C145.589 218.939 145.8 221.045 144.345 222.475C144.345 222.475 143.724 223.109 144.708 223.228C144.708 223.228 147.972 223.308 147.556 218.186C146.994 217.059 146.77 215.339 146.883 213.025ZM148.702 214.497C148.702 214.497 150.67 220.688 148.341 223.032C148.341 223.032 151.819 223.751 151.295 219.937C150.83 217.981 149.965 216.168 148.702 214.497ZM146.881 225.72L146.998 226.52L150.476 226.741C150.476 226.741 150.837 227.808 151.531 227.453C151.531 227.453 152.529 227.542 151.531 226.609C151.531 226.609 150.024 224.467 152.577 222.513L155.3 220.47L156.227 220.87C156.227 220.87 159.834 218.693 162.094 220.293C162.094 220.293 164.355 222.256 161.515 224.654L161.805 225.187L159.022 227.453H162.375C170.793 220.82 169.16 189.449 177.675 179.465L129.161 180.244C125.15 170.022 92.4136 198.225 121.111 226.239L135.085 227.306C135.085 227.306 135.112 226.375 136.101 226.206L132.917 222.813C132.917 222.813 129.036 223.063 128.157 222.307C128.157 222.307 126.253 221.018 129.584 218.66C129.584 218.66 132.037 216.557 134.892 217.65C134.892 217.65 136.76 219.025 134.673 221.634L138.444 226.291H139.871V223.401L136.101 220.96C136.101 220.96 136.394 218.913 137.309 218.324L136.76 217.986L138.993 210.806C138.993 210.806 139.358 209.768 138.115 208.506L134.563 204.886C134.563 204.886 134.014 203.766 134.234 202.167L134.454 199.136L134.892 199.221L134.783 197.425C134.783 197.425 134.892 196.585 135.772 196.585C135.772 196.585 136.651 196.668 136.651 197.425C136.651 197.425 136.419 198.041 136.926 197.973C136.926 197.973 137.963 198.061 136.815 198.957L136.862 202.688L140.011 205.296C140.011 205.296 140.216 205.729 142.266 205.414C142.266 205.414 144.163 205.312 143.342 204.354C143.342 204.354 142.47 203.277 142.779 202.099C142.779 202.099 142.391 200.331 145.006 200.37C145.006 200.37 146.287 200.449 147.568 201.195C147.568 201.195 149.053 199.154 149.565 199.232C149.565 199.232 150.029 198.941 149.258 198.468C149.258 198.468 148.643 197.684 149.67 196.898C149.67 196.898 150.847 196.034 151.002 195.72C151.002 195.72 153.096 197.347 151.536 198.919C151.536 198.919 150.825 199.271 151.257 199.821C151.257 199.821 152.46 203.056 151.938 203.733C151.938 203.733 151.531 204.942 152.401 205.652C152.401 205.652 153.039 206.549 152.577 208.947C152.577 208.947 153.734 209.969 153.734 210.679C153.734 210.679 153.722 211.745 150.998 212.279C150.998 212.279 150.14 213.132 151.474 214.553C151.474 214.553 155.474 219.048 153.734 220.87C153.734 220.87 151.011 224.334 147.344 223.801L146.881 225.72Z"
        fill="#F1BF00"
      />
      <path
        d="M116.923 186.392L115.466 190.405C114.209 190.749 113.011 190.604 111.911 188.458C111.182 186.995 112.767 186.227 113.476 185.146L116.923 186.392Z"
        fill="white"
      />
      <path
        d="M119.492 238.073H124.953V240.474C122.229 242.974 121.031 241.45 119.683 240.322L119.492 238.073Z"
        fill="white"
      />
      <path
        d="M160.911 234.89C162.618 235.202 164.513 235.249 164.551 237.913C164.494 239.438 163.309 239.514 162.62 240.228L158.981 237.204C159.606 236.421 159.833 235.4 160.911 234.89Z"
        fill="white"
      />
      <path
        d="M139.985 227.921L160.487 228.026L159.804 230.439L140.458 230.229L139.985 227.921Z"
        fill="#B3B3B3"
      />
      <path
        d="M141.877 230.177C147.836 230.141 154.706 229.855 159.699 230.072L159.646 231.331H141.877V230.177Z"
        fill="#231F20"
      />
      <path
        d="M140.126 227.63C147.105 227.6 155.728 227.254 161.575 227.437L160.936 228.604H140.126V227.63Z"
        fill="#231F20"
      />
      <path
        d="M160.393 228.163L161.503 227.625L159.688 231.246L158.893 230.63L160.393 228.163Z"
        fill="#231F20"
      />
      <path
        d="M142.245 231.751C142.245 232.62 142.255 233.365 141.825 233.43C141.336 233.504 140.109 232.867 140.05 231.83C140.003 230.995 140.275 230.022 140.721 230.02C141.156 230.017 142.245 230.882 142.245 231.751Z"
        fill="#231F20"
      />
      <path
        d="M142.061 231.253L146.911 231.449L145.754 233.155H142.061V231.253Z"
        fill="#231F20"
      />
      <path
        d="M143.717 230.807H151.195C151.787 231.28 151.51 231.41 151.3 231.489L143.717 231.476V230.807V230.807Z"
        fill="#231F20"
      />
      <path
        d="M121.728 226.278C128.026 226.522 138.114 227.656 140.192 227.629L140.23 228.542C135.887 228.875 128.553 228.546 122.658 228.43L121.728 226.278Z"
        fill="#231F20"
      />
      <path
        d="M141.816 230.665C141.735 231.327 139.716 232.774 140.174 230.275C140.188 230.2 140.152 230.066 140.128 229.982C139.73 228.568 138.337 230.141 138.533 229.831C138.742 229.5 139.173 228.56 139.794 228.492C140.478 228.417 141.948 230.109 141.816 230.665Z"
        fill="#231F20"
      />
      <path
        d="M138.586 229.886C138.582 230.059 138.402 229.736 137.564 229.562C136.529 229.346 136.077 230.093 136.077 229.924C136.077 229.755 136.885 228.713 137.917 228.486C141.368 227.729 139.758 229.042 138.586 229.886Z"
        fill="#231F20"
      />
      <path
        d="M142.386 230.185H141.505V230.879H142.386V230.185Z"
        fill="#231F20"
      />
      <path
        d="M147.582 228.171H139.757V228.634H147.582V228.171Z"
        fill="#231F20"
      />
      <path
        d="M136.133 229.942C136.137 230.08 136.123 229.822 135.213 229.822C134.387 229.822 134.33 230.433 134.33 230.295C134.33 230.156 134.741 229.586 135.362 229.042C138.592 226.214 137.26 228.982 136.133 229.942Z"
        fill="#231F20"
      />
      <path
        d="M137.546 228.412H136.914V229.08H137.546V228.412Z"
        fill="#231F20"
      />
      <path
        d="M134.386 230.211C134.386 230.867 134.108 231.398 133.903 231.398C133.697 231.398 133.093 230.829 132.936 230.193C132.784 229.578 133.595 228.849 133.828 228.875C136.198 229.149 134.851 229.496 134.386 230.211Z"
        fill="#231F20"
      />
      <path
        d="M135.524 229.081C135.524 229.189 135.079 229.302 134.628 229.302C134.176 229.302 133.718 229.051 133.81 229.107C133.9 229.163 133.09 228.808 134.479 228.801C134.919 228.799 135.524 228.973 135.524 229.081Z"
        fill="#231F20"
      />
      <path
        d="M134.372 230.633C134.375 230.528 134.334 231.483 134.286 231.514C134.23 231.55 133.983 231.052 134.072 230.631C134.162 230.21 134.547 229.825 134.613 229.838C134.678 229.852 134.462 230.212 134.372 230.633Z"
        fill="#231F20"
      />
      <path
        d="M134.11 230.853C134.014 231.35 130.912 235.398 129.924 235.148C128.703 234.84 129.625 231.262 129.549 230.853C129.398 230.032 131.721 229.699 132.934 230.151C134.113 230.591 134.11 230.436 134.11 230.853Z"
        fill="#231F20"
      />
      <path
        d="M126.096 234.349L129.632 230.538L131.675 230.477L128.678 237.49C127.742 236.525 126.931 235.411 126.096 234.349L126.096 234.349Z"
        fill="#231F20"
      />
      <path
        d="M135.474 234.336C134.929 234.535 133.36 235.247 132.951 234.131C132.543 233.016 133.495 231.399 134.04 231.2C134.586 231.001 134.176 232.138 134.585 233.253C134.994 234.371 136.05 234.182 135.474 234.336Z"
        fill="#231F20"
      />
      <path
        d="M143.718 232.557C144.138 232.967 142.956 233.944 141.651 234.738C140.021 235.728 139.236 235.289 139.09 234.881C138.951 234.492 139.51 234.501 140.764 233.689C142.303 232.693 143.51 232.2 143.718 232.557Z"
        fill="#231F20"
      />
      <path
        d="M139.059 234.734L139.958 235.307L140.037 242.429C139.972 243.717 138.843 242.814 138.213 242.391C138.294 239.657 138.656 237.145 139.059 234.734Z"
        fill="#231F20"
      />
      <path
        d="M135.806 235.208C135.806 235.792 135.184 237.134 134.795 236.926C134.506 236.773 135.861 235.594 134.826 236.919C134.766 236.996 133.714 237.411 133.834 236.27C134.014 234.545 134.957 234.085 135.427 234.162C135.862 234.234 135.889 234.873 135.806 235.208V235.208Z"
        fill="#231F20"
      />
      <path
        d="M134.702 234.84C134.702 235.388 134.089 236.657 134.042 236.203C133.942 235.233 133.592 234.9 133.376 234.609C133.05 234.168 133.418 233.847 133.875 233.847C134.331 233.847 134.702 234.291 134.702 234.84Z"
        fill="#231F20"
      />
      <path
        d="M133.827 236.257L135.417 236.421C135.26 237.23 135.204 238.051 135.187 238.861L133.788 238.48C133.594 237.693 133.714 236.976 133.827 236.257Z"
        fill="#231F20"
      />
      <path
        d="M133.457 238.466C134.277 237.742 134.883 237.857 135.182 238.819L135.594 241.713C134.985 241.478 134.217 241.528 133.828 240.896L133.457 238.466Z"
        fill="#231F20"
      />
      <path
        d="M132.973 233.701C133.173 233.934 129.082 231.852 128.076 232.712C127.07 233.571 129.531 237.047 129.33 236.813C129.13 236.58 129.783 235.694 130.789 234.834C131.795 233.975 132.773 233.467 132.973 233.701Z"
        fill="#231F20"
      />
      <path
        d="M134.028 236.131C133.95 236.298 133.669 230.506 133.446 230.403C133.222 230.299 131.989 234.03 132.067 233.863C132.145 233.696 132.428 233.585 132.613 233.748C132.836 233.946 134.106 235.964 134.028 236.131Z"
        fill="#231F20"
      />
      <path
        d="M145.742 230.248H140.464V232.586H145.742V230.248Z"
        fill="#231F20"
      />
      <path
        d="M144.208 230.442H147.181V231.462C146.124 231.602 143.832 234.368 144.208 231.462V230.442Z"
        fill="#231F20"
      />
      <path
        d="M134.274 231.278C134.274 232.225 134.016 232.994 133.698 232.994C133.38 232.994 133.122 232.225 133.122 231.278C133.122 230.33 133.38 229.562 133.698 229.562C134.01 229.562 134.266 230.302 134.274 231.231"
        fill="#231F20"
      />
      <path
        d="M130.931 230.445L126.725 234.994L128.43 236.31L132.636 231.761L130.931 230.445Z"
        fill="#552200"
      />
      <path
        d="M187.934 172.396H113.558V185.314H187.934V172.396Z"
        fill="#CB0006"
      />
      <path
        d="M142.788 248.528C149.083 246.125 153.702 250.412 169.36 210.632L180.147 222.555L143.143 261.609L142.788 248.528Z"
        fill="#CB0006"
      />
      <path
        d="M111.819 172.782H126.308V237.181C136.581 253.35 141.365 246.177 143.091 249.933C151.46 268.144 117.703 260.019 111.819 237.181V172.782Z"
        fill="#CB0006"
      />
      <path
        fill-rule="evenodd"
        clip-rule="evenodd"
        d="M175.422 183.448H124.343V232.872C124.343 232.872 125.032 248.016 139.766 249.999C139.766 249.999 151.625 251.349 159.559 235.739C168.786 218.467 174.074 201.037 175.422 183.448ZM127.122 228.447L127.192 231.601C127.192 231.601 127.164 232.534 127.343 233.947L127.122 228.447ZM127.08 228.742L129.095 239.342C135.41 250.768 145.353 248.653 151.967 242.279C154.754 239.594 156.95 236.153 158.036 232.651C158.187 232.37 160.259 229.3 160.274 229.014L127.08 228.742ZM160.946 227.105C167.64 214.244 170.702 200.335 172.326 186.069H127.192V226.924"
        fill="#231F20"
      />
      <path
        fill-rule="evenodd"
        clip-rule="evenodd"
        d="M101.132 7.69273C101.132 7.69273 101.135 10.9851 105.867 12.1365C105.867 12.1365 109.063 12.2728 109.61 7.48072"
        fill="#CB0006"
      />
      <path
        fill-rule="evenodd"
        clip-rule="evenodd"
        d="M99.1495 44.5917L104.482 44.4409L107.488 51.1127L96.895 51.3311L99.1495 44.5917Z"
        fill="#066AB2"
      />
      <path
        d="M192.767 275.354L198.936 275.992L204.405 272.635C207.655 262.227 210.482 269.081 213.004 288.467L206.924 292.199L200.546 290.504L192.767 275.354Z"
        fill="#CB0006"
      />
      <path
        fill-rule="evenodd"
        clip-rule="evenodd"
        d="M82.8193 297.352L82.2028 313.388C82.2028 313.388 81.9564 319.452 86.5823 319.759C86.5823 319.759 94.2007 320.127 101.049 318.99C101.049 318.99 112.739 317.02 127.051 318.621C127.051 318.621 133.59 320.159 139.82 318.16C139.82 318.16 143.367 316.989 142.75 312.926C142.75 312.926 142.443 306.863 141.825 303.109C141.825 303.109 141.516 297.968 141.825 295.813C141.825 295.813 129.826 297.507 122.362 296.584C122.362 296.584 115.515 294.889 102.438 296.737C96.2795 297.751 89.7409 297.956 82.8193 297.352ZM113.135 293.5C119.63 293.5 123.328 294.38 123.328 294.38C136.65 295.686 140.418 294.416 140.418 294.416C138.847 291.653 139.295 290.062 139.295 290.062C139.67 288.567 143.819 288.976 143.819 288.976C169.606 289.221 179.399 266.584 179.399 266.584C187.146 254.585 195.079 255.387 195.079 255.387C206.004 255.483 207.972 264.233 207.972 264.233L213.801 280.687C213.801 280.687 216.371 288.938 210.756 292.039C210.756 292.039 206.901 295.117 201.963 292.906C201.963 292.906 196.029 306.32 178.023 312.691C178.023 312.691 162.38 317.842 143.729 317.986C143.729 317.986 143.373 323.785 137.848 323.785C137.848 323.785 133.005 324.513 123.555 323.29C123.555 323.29 120.365 322.22 113.368 322.22C106.37 322.22 100.444 323.29 100.444 323.29C90.9969 324.513 86.1516 323.785 86.1516 323.785C80.6271 323.785 80.2711 317.986 80.2711 317.986C61.6222 317.842 45.9778 312.691 45.9778 312.691C27.9715 306.32 22.0393 292.906 22.0393 292.906C17.0991 295.117 13.2437 292.039 13.2437 292.039C7.63013 288.938 10.1993 280.687 10.1993 280.687L16.0288 264.233C16.0288 264.233 17.9951 255.483 28.9207 255.387C28.9207 255.387 36.8524 254.585 44.6033 266.584C44.6033 266.584 54.3959 289.221 80.1823 288.976C80.1823 288.976 84.3324 288.567 84.7068 290.062C84.7068 290.062 85.1551 291.653 83.5834 294.416C83.5834 294.416 87.3504 295.686 100.672 294.38C100.672 294.38 106.64 293.5 113.135 293.5ZM190.519 272.645C190.519 272.645 189.622 271.452 189.677 269.961C189.677 269.961 189.893 268.74 189.405 268.523C189.405 268.523 188.752 268.009 186.878 269.961C186.878 269.961 184.181 272.449 178.534 278.452C178.534 278.452 170.302 286.897 157.656 289.475C157.656 289.475 149.564 291.316 142.565 290.948C142.565 290.948 141.065 290.935 142.519 292.861C142.519 292.861 143.846 294.374 143.371 297.433C143.371 297.433 142.769 302.988 143.467 314.088C143.467 314.088 179.192 318.222 197.006 294.41C197.006 294.41 197.954 293.032 199.028 290.692C199.028 290.692 199.679 289.817 198.972 288.772L190.519 272.645ZM196.334 277.517C196.334 277.517 195.862 275.959 194.872 276.195C194.872 276.195 194.347 276.383 195.057 277.705L200.593 288.936C200.593 288.936 200.968 289.646 201.582 289.597C201.582 289.597 202.435 289.692 201.915 288.7L196.334 277.517ZM199.64 277.652C199.64 277.652 199.269 276.067 197.991 276.431C197.991 276.431 196.718 276.923 198.089 279.109L203.469 289.665C203.469 289.665 204.376 290.686 205.417 290.354C205.417 290.354 205.939 290.354 205.323 289.219L199.64 277.652ZM206.846 268.731C206.846 268.731 206.299 273.735 200.461 275.83L206.939 290.667C206.939 290.667 209.49 290.844 211.589 287.022C211.589 287.022 212.593 285.208 211.954 283.295L206.846 268.731ZM194.897 268.251C194.897 268.251 194.897 267.024 193.657 267.824C193.657 267.824 193.294 271.486 197.458 271.541C197.458 271.541 201.456 271.042 201.4 266.612C201.4 266.612 201.123 262.567 196.405 262.068C196.405 262.068 190.3 261.343 179.026 275.081C179.026 275.081 175.734 279.062 171.843 281.253C171.843 281.253 178.938 273.495 180.422 270.5C180.422 270.5 186.509 257.958 196.484 258.556C196.484 258.556 205.063 258.257 205.462 267.315C205.462 267.315 204.565 274.285 197.88 274.484C197.88 274.484 191.198 274.484 191.797 267.915C191.797 267.915 192.494 263.433 196.484 263.632C196.484 263.632 200.356 263.381 199.858 267.706C198.803 270.851 195.88 270.913 194.897 268.251ZM33.4819 272.645C33.4819 272.645 34.3795 271.452 34.3253 269.961C34.3253 269.961 34.1074 268.74 34.5969 268.523C34.5969 268.523 35.2505 268.009 37.1235 269.961C37.1235 269.961 39.8212 272.449 45.4678 278.452C45.4678 278.452 53.6981 286.897 66.3451 289.475C66.3451 289.475 74.4359 291.316 81.4363 290.948C81.4363 290.948 82.9388 290.935 81.4825 292.861C81.4825 292.861 80.1537 294.374 80.6301 297.433C80.6301 297.433 81.2325 302.988 80.5337 314.088C80.5337 314.088 44.8061 318.222 26.9935 294.41C26.9935 294.41 26.0468 293.032 24.9725 290.692C24.9725 290.692 24.3219 289.817 25.0297 288.772L33.4819 272.645ZM27.6667 277.517C27.6667 277.517 28.1386 275.959 29.1291 276.195C29.1291 276.195 29.6552 276.383 28.9448 277.705L23.4062 288.936C23.4062 288.936 23.0343 289.646 22.4163 289.597C22.4163 289.597 21.5664 289.692 22.085 288.7L27.6667 277.517ZM24.36 277.652C24.36 277.652 24.7315 276.067 26.0101 276.431C26.0101 276.431 27.2817 276.923 25.9117 279.109L20.5328 289.665C20.5328 289.665 19.6251 290.686 18.5845 290.354C18.5845 290.354 18.0639 290.354 18.6789 289.219L24.36 277.652ZM17.1533 268.731C17.1533 268.731 17.702 273.735 23.5388 275.83L17.0624 290.667C17.0624 290.667 14.5112 290.844 12.4124 287.022C12.4124 287.022 11.4073 285.208 12.0484 283.295L17.1533 268.731ZM29.1045 268.251C29.1045 268.251 29.1045 267.024 30.3439 267.824C30.3439 267.824 30.7054 271.486 26.5422 271.541C26.5422 271.541 22.5448 271.042 22.6005 266.612C22.6005 266.612 22.8771 262.567 27.5975 262.068C27.5975 262.068 33.7013 261.343 44.9768 275.081C44.9768 275.081 48.2664 279.062 52.1585 281.253C52.1585 281.253 45.0647 273.495 43.5782 270.5C43.5782 270.5 37.4934 257.958 27.5156 258.556C27.5156 258.556 18.9379 258.257 18.5383 267.315C18.5383 267.315 19.4364 274.285 26.1201 274.484C26.1201 274.484 32.8037 274.484 32.2058 267.915C32.2058 267.915 31.5071 263.433 27.5156 263.632C27.5156 263.632 23.6442 263.381 24.1412 267.706C25.1989 270.851 28.1211 270.913 29.1045 268.251Z"
        fill="#231F20"
      />
      <path
        d="M69.5119 100.854C90.6173 91.4124 95.5259 90.1352 113.558 90.8863L112.399 135.762L102.751 131.743L89.603 141.546L72.5555 132.157L42.2729 132.677C46.0783 123.129 54.1229 109.895 69.5119 100.854Z"
        fill="#066AB2"
      />
      <path
        d="M144.895 112.565C147.865 109.173 151.197 109.006 154.52 108.761L156.027 111.627L159.664 114.79C161.977 123.311 161.337 125.461 161.172 128.633C159.797 129.975 159.287 131.987 155.763 131.66L148.332 123.187L146.357 120.057L146.486 115.325L144.895 112.565Z"
        fill="#CB0006"
      />
      <path
        fill-rule="evenodd"
        clip-rule="evenodd"
        d="M146.026 115.297C146.026 115.297 141.539 112.362 148.803 109.194C148.803 109.194 155.569 105.757 155.969 110.824C155.969 110.824 161 113.371 160.249 115.83C160.249 115.83 162.035 119.732 161.923 121.006C161.923 121.006 163.724 125.147 161.739 125.624C161.739 125.624 163.846 129.474 160.35 130.321C160.35 130.321 159.544 134.127 156.653 132C156.653 132 154.034 131.934 153.761 129.874C153.761 129.874 151.263 128.51 150.837 126.889C150.837 126.889 148.2 126.243 147.981 122.796C146.018 121.974 145.367 119.475 146.026 115.297ZM148.997 113.875C148.997 113.875 141.785 114.173 148.788 110.511C148.788 110.511 153.16 108.205 154.203 109.815C154.203 109.815 154.353 112.026 150.668 113.316L151 113.827L154.147 112.296C154.147 112.296 157.474 111.846 158.569 114.949C158.569 114.949 155.098 112.843 154.743 113.69C154.743 113.69 154.263 114.43 155.716 114.818C155.716 114.818 159.161 116.681 160.322 119.918C160.322 119.918 157.487 118.095 157.146 118.43C157.146 118.43 156.663 119.171 157.44 119.55C157.44 119.55 161.045 122.61 160.828 124.233C160.828 124.233 160.308 125.075 159.875 124.19C159.875 124.19 157.79 121.151 157.306 121.892C157.306 121.892 157.068 122.439 157.742 122.954C157.742 122.954 161.342 126.344 160.31 127.688C160.31 127.688 159.685 129.519 156.909 124.707L156.5 124.905C156.5 124.905 159.646 129.789 158.045 130.484C158.045 130.484 154.6 131.729 154.196 123.996C154.196 123.996 154.379 122.641 153.736 122.533C153.736 122.533 152.785 123.503 154.095 127.762C154.095 127.762 151.862 128.932 151.217 122.411C151.217 122.411 151.345 121.422 150.831 121.082C150.831 121.082 150.11 120.664 150.317 124.197C150.317 124.197 148.47 124.759 148.702 118.822C148.702 118.822 148.916 117.875 148.377 117.464C148.377 117.464 147.663 117.211 147.779 119.523C147.779 119.523 147.183 121.415 146.86 119.719C146.86 119.719 145.353 115.058 149.057 114.688L148.997 113.875Z"
        fill="#231F20"
      />
      <path
        d="M121.542 106.783C125.665 104.948 128.759 106.192 131.878 107.361L132.041 110.594L134.012 114.989C132.528 123.692 131.044 125.375 129.56 128.185L123.378 128.667L120.196 117.864L119.719 114.196L121.826 109.954L121.542 106.783Z"
        fill="#CB0006"
      />
      <path
        fill-rule="evenodd"
        clip-rule="evenodd"
        d="M121.396 109.528C121.396 109.528 118.651 104.927 126.574 105.256C126.574 105.256 134.166 105.13 132.299 109.858C132.299 109.858 135.703 114.349 133.945 116.229C133.945 116.229 133.838 120.519 133.177 121.613C133.177 121.613 132.976 126.123 130.981 125.684C130.981 125.684 131.183 130.066 127.67 129.298C127.67 129.298 125.274 132.366 123.611 129.19C123.611 129.19 121.286 127.985 121.944 126.012C121.944 126.012 120.298 123.694 120.628 122.052C120.628 122.052 118.542 120.317 119.858 117.122C118.457 115.527 118.969 112.995 121.396 109.528ZM124.691 109.55C124.691 109.55 118.079 106.663 125.983 106.436C125.983 106.436 130.926 106.276 131.152 108.179C131.152 108.179 130.317 110.231 126.436 109.777L126.515 110.384H130.014C130.014 110.384 133.201 111.435 132.823 114.7C132.823 114.7 130.631 111.291 129.937 111.898C129.937 111.898 129.177 112.353 130.317 113.336C130.317 113.336 132.595 116.519 132.214 119.934C132.214 119.934 130.469 117.057 130.014 117.209C130.014 117.209 129.255 117.663 129.787 118.346C129.787 118.346 131.682 122.671 130.773 124.033C130.773 124.033 129.937 124.564 129.937 123.581C129.937 123.581 129.398 119.934 128.639 120.389C128.639 120.389 128.183 120.778 128.563 121.534C128.563 121.534 130.309 126.155 128.79 126.913C128.79 126.913 127.424 128.285 127.046 122.747H126.59C126.59 122.747 127.274 128.513 125.527 128.436C125.527 128.436 121.883 128.048 124.921 120.919C124.921 120.919 125.68 119.785 125.148 119.405C125.148 119.405 123.867 119.86 123.173 124.263C123.173 124.263 120.65 124.337 122.937 118.193C122.937 118.193 123.487 117.361 123.173 116.829C123.173 116.829 122.709 116.14 121.343 119.405C121.343 119.405 119.437 119.103 122.254 113.867C122.254 113.867 122.862 113.109 122.557 112.504C122.557 112.504 122.028 111.965 121.116 114.095C121.116 114.095 119.748 115.532 120.205 113.867C120.205 113.867 120.898 109.019 124.388 110.307L124.691 109.55Z"
        fill="#231F20"
      />
      <path
        d="M121.575 146.27C125.697 144.435 128.791 145.68 131.91 146.848L132.073 150.081L134.045 154.476C132.561 163.179 131.076 164.862 129.592 167.672L123.41 168.154L120.228 157.351L119.751 153.683L121.859 149.442L121.575 146.27Z"
        fill="#CB0006"
      />
      <path
        fill-rule="evenodd"
        clip-rule="evenodd"
        d="M121.396 149.112C121.396 149.112 118.651 144.51 126.574 144.839C126.574 144.839 134.166 144.711 132.299 149.44C132.299 149.44 135.703 153.932 133.945 155.811C133.945 155.811 133.838 160.102 133.177 161.196C133.177 161.196 132.976 165.706 130.981 165.268C130.981 165.268 131.183 169.648 127.67 168.881C127.67 168.881 125.274 171.949 123.611 168.774C123.611 168.774 121.286 167.567 121.944 165.596C121.944 165.596 120.298 163.277 120.628 161.635C120.628 161.635 118.542 159.9 119.858 156.705C118.457 155.11 118.969 152.579 121.396 149.112ZM124.691 149.133C124.691 149.133 118.079 146.246 125.983 146.019C125.983 146.019 130.926 145.859 131.152 147.762C131.152 147.762 130.317 149.814 126.436 149.361L126.515 149.967H130.014C130.014 149.967 133.201 151.018 132.823 154.283C132.823 154.283 130.631 150.874 129.937 151.481C129.937 151.481 129.177 151.934 130.317 152.92C130.317 152.92 132.595 156.102 132.214 159.517C132.214 159.517 130.469 156.64 130.014 156.791C130.014 156.791 129.255 157.247 129.787 157.928C129.787 157.928 131.682 162.253 130.773 163.617C130.773 163.617 129.937 164.148 129.937 163.164C129.937 163.164 129.398 159.517 128.639 159.973C128.639 159.973 128.183 160.361 128.563 161.118C128.563 161.118 130.309 165.739 128.79 166.495C128.79 166.495 127.424 167.868 127.046 162.33H126.59C126.59 162.33 127.274 168.094 125.527 168.019C125.527 168.019 121.883 167.631 124.921 160.504C124.921 160.504 125.68 159.368 125.148 158.989C125.148 158.989 123.867 159.443 123.173 163.846C123.173 163.846 120.65 163.92 122.937 157.775C122.937 157.775 123.487 156.944 123.173 156.413C123.173 156.413 122.709 155.724 121.343 158.989C121.343 158.989 119.437 158.686 122.254 153.451C122.254 153.451 122.862 152.693 122.557 152.088C122.557 152.088 122.028 151.548 121.116 153.678C121.116 153.678 119.748 155.116 120.205 153.451C120.205 153.451 120.898 148.604 124.388 149.891L124.691 149.133Z"
        fill="#231F20"
      />
      <path
        d="M140.893 137.786L150.842 137.497L151.308 141.066L152.41 143.576L151.937 150.262L148.428 157.357C147.069 156.76 145.526 159.241 143.955 158.814C142.722 158.479 141.545 155.168 139.927 155.139C139.944 154.081 140.933 151.253 139.907 151.652C139.38 151.856 138.184 147.421 138.559 144.919L141.08 139.39L140.893 137.786H140.893Z"
        fill="#CB0006"
      />
      <path
        fill-rule="evenodd"
        clip-rule="evenodd"
        d="M141.514 136.786C141.514 136.786 139.817 136.796 140.601 139.52C140.601 139.52 136.424 144.08 138.382 146.413C138.382 146.413 136.958 151.483 139.557 152.262C139.557 152.262 138.393 156.289 141.122 156.289C141.122 156.289 141.109 159.144 143.984 159.664C143.984 159.664 145.158 159.806 146.331 158.765C146.331 158.765 148.802 158.884 149.193 156.028C149.193 156.028 151.933 156.559 151.803 152.132C151.803 152.132 152.847 151.08 152.326 147.313C152.326 147.313 155.315 145.253 151.543 140.172C151.543 140.172 153.228 136.395 149.193 136.526L150.76 134.31C150.76 134.31 155.066 133.4 152.717 130.024C152.717 130.024 149.442 128.341 148.671 132.237L146.724 134.831L146.853 132.758C146.853 132.758 149.323 129.243 145.548 128.851C145.548 128.851 142.548 128.732 143.853 132.108V134.181L142.548 132.758C142.548 132.758 142.166 128.069 139.165 130.024C139.165 130.024 136.565 132.118 139.947 134.062L141.514 136.786ZM142.235 139.076C142.235 139.076 141.25 138.289 142.334 137.895C142.334 137.895 143.532 139.566 146.272 139.272C146.272 139.272 151.46 139.175 148.717 137.798C148.717 137.798 152.873 138.601 147.653 139.96H145.681V141.024C145.681 141.024 148.817 141.498 149.899 140.827C149.899 140.827 152.46 143.202 151.871 145.546C151.871 145.546 150.295 142.892 149.899 143.383C149.899 143.383 151.871 148.771 150.589 150.146C150.589 150.146 149.113 148.69 149.113 146.625C149.113 146.625 147.831 147.494 149.113 149.852C149.113 149.852 150.769 153.079 149.31 154.258C149.31 154.258 148.341 153.274 147.751 149.361C147.751 149.361 146.469 148.985 146.962 151.425C146.962 151.425 148.833 156.813 146.469 156.813C146.469 156.813 146.864 154.864 145.978 151.622C145.978 151.622 144.992 150.622 145.19 153.766C145.19 153.766 146.469 158.286 144.402 157.991C144.402 157.991 141.25 158.385 143.811 151.13C143.811 151.13 143.614 149.753 143.023 151.13C143.023 151.13 142.055 152.783 141.759 154.946C141.759 154.946 138.921 153.964 141.366 149.066C141.366 149.066 142.711 147.575 142.235 146.905C142.235 146.905 141.267 146.905 139.889 149.951C139.889 149.951 138.903 151.506 139.394 147.985C139.394 147.985 140.068 146.134 142.137 143.383C142.137 143.383 142.252 142.146 141.465 142.617C141.465 142.617 140.479 144.071 139.79 144.955C139.79 144.955 138.724 143.759 140.578 140.827C140.578 140.827 141.349 139.879 142.629 140.45C142.629 140.45 144.402 141.204 144.796 140.827L144.895 140.156C143.609 139.979 142.719 139.616 142.235 139.076Z"
        fill="#231F20"
      />
      <path
        d="M160.662 146.502C164.784 144.667 167.878 145.912 170.997 147.08L171.161 150.313L173.132 154.708C171.648 163.411 170.163 165.094 168.679 167.904L162.497 168.386L159.315 157.583L158.839 153.915L160.946 149.674L160.662 146.502Z"
        fill="#CB0006"
      />
      <path
        fill-rule="evenodd"
        clip-rule="evenodd"
        d="M160.724 149.112C160.724 149.112 157.98 144.51 165.901 144.839C165.901 144.839 173.493 144.711 171.626 149.44C171.626 149.44 175.03 153.932 173.274 155.811C173.274 155.811 173.165 160.102 172.505 161.196C172.505 161.196 172.304 165.706 170.311 165.268C170.311 165.268 170.511 169.648 166.999 168.881C166.999 168.881 164.602 171.949 162.938 168.774C162.938 168.774 160.614 167.567 161.273 165.596C161.273 165.596 159.626 163.277 159.955 161.635C159.955 161.635 157.869 159.9 159.186 156.705C157.786 155.11 158.298 152.579 160.724 149.112ZM164.021 149.133C164.021 149.133 157.407 146.246 165.311 146.019C165.311 146.019 170.252 145.859 170.479 147.762C170.479 147.762 169.646 149.814 165.765 149.361L165.842 149.967H169.343C169.343 149.967 172.529 151.018 172.149 154.283C172.149 154.283 169.959 150.874 169.267 151.481C169.267 151.481 168.508 151.934 169.646 152.92C169.646 152.92 171.922 156.102 171.543 159.517C171.543 159.517 169.798 156.64 169.343 156.791C169.343 156.791 168.583 157.247 169.114 157.928C169.114 157.928 171.011 162.253 170.1 163.617C170.1 163.617 169.267 164.148 169.267 163.164C169.267 163.164 168.725 159.517 167.967 159.973C167.967 159.973 167.512 160.361 167.891 161.118C167.891 161.118 169.638 165.739 168.119 166.495C168.119 166.495 166.752 167.868 166.373 162.33H165.916C165.916 162.33 166.601 168.094 164.854 168.019C164.854 168.019 161.212 167.631 164.246 160.504C164.246 160.504 165.005 159.368 164.475 158.989C164.475 158.989 163.195 159.443 162.501 163.846C162.501 163.846 159.98 163.92 162.266 157.775C162.266 157.775 162.814 156.944 162.501 156.413C162.501 156.413 162.037 155.724 160.67 158.989C160.67 158.989 158.765 158.686 161.582 153.451C161.582 153.451 162.189 152.693 161.885 152.088C161.885 152.088 161.355 151.548 160.444 153.678C160.444 153.678 159.078 155.116 159.532 153.451C159.532 153.451 160.224 148.604 163.715 149.891L164.021 149.133Z"
        fill="#231F20"
      />
      <path
        fill-rule="evenodd"
        clip-rule="evenodd"
        d="M104.889 285.767C104.889 281.847 108.072 278.67 112 278.67C115.928 278.67 119.113 281.847 119.113 285.767C119.113 289.687 115.928 292.864 112 292.864C108.072 292.864 104.889 289.687 104.889 285.767ZM106.883 285.767C106.883 282.946 109.174 280.658 112 280.658C114.827 280.658 117.118 282.946 117.118 285.767C117.118 288.587 114.827 290.874 112 290.874C109.174 290.874 106.883 288.587 106.883 285.767Z"
        fill="#231F20"
      />
      <path
        fill-rule="evenodd"
        clip-rule="evenodd"
        d="M115.404 278.145C123.946 278.312 126.524 284.179 126.524 284.179C149.397 280.676 170.033 267.596 170.033 267.596C174.05 249.494 191.606 250.61 191.606 250.61C216.275 224.093 221.427 196.61 221.427 196.61C210.408 190.238 211.063 177.932 211.063 177.932C210.8 166.935 219.898 162.135 219.898 162.135C229.124 130.064 219.903 107.355 219.903 107.355C216.695 99.1153 209.799 98.0837 209.799 98.0837C201.879 96.7429 198.425 100.873 198.425 100.873L194.235 104.654C186.255 78.5744 165.959 66.6021 165.959 66.6021C154.28 59.6112 140.888 65.9803 140.888 65.9803L114.063 77.5026C116.989 78.9456 116.422 82.1573 116.422 82.1573C116.786 86.1736 112.134 86.5213 112.134 86.5213C112.134 86.5213 107.214 86.1736 107.577 82.1573C107.577 82.1573 107.012 78.9456 109.939 77.5026L83.113 65.9803C83.113 65.9803 69.7216 59.6112 58.0415 66.6021C58.0415 66.6021 37.747 78.5744 29.7647 104.654L25.5754 100.873C25.5754 100.873 22.1222 96.7429 14.2021 98.0837C14.2021 98.0837 7.30585 99.1153 4.09539 107.355C4.09539 107.355 -5.12405 130.064 4.10262 162.135C4.10262 162.135 13.2016 166.935 12.9375 177.932C12.9375 177.932 13.5946 190.238 2.57251 196.61C2.57251 196.61 7.72667 224.093 32.3947 250.61C32.3947 250.61 49.9512 249.494 53.9682 267.596C53.9682 267.596 74.6056 280.676 97.4794 284.179C97.4794 284.179 100.054 278.312 108.597 278.145H115.404ZM118.84 229.275C118.84 229.275 117.999 230.041 118.984 231.263C118.984 231.263 119.991 232.629 118.551 233.132C118.551 233.132 116.343 234.377 116.115 236.534C115.353 232.585 114.914 227.996 114.914 222.658V174.411H187.19C187.19 174.411 184.295 256.679 141.773 260.524C141.773 260.524 122.518 263.368 116.615 238.844C116.786 239.172 117.062 239.592 117.399 239.718C117.399 239.718 117.781 238.952 119.414 241.154C119.414 241.154 119.823 241.658 120.976 241.586C120.976 241.586 121.912 241.658 122.848 240.149C122.848 240.149 123.279 238.929 124.216 238.497C124.216 238.497 125.655 237.657 124.575 235.072C124.575 235.072 123.832 232.341 121.624 232.701C121.036 232.227 120.82 231.318 120.976 229.97C121.082 228.828 120.368 228.597 118.84 229.275ZM118.551 236.127C118.551 236.127 115.433 238.281 119.895 238.929C119.895 238.929 119.679 240.22 120.76 240.149C120.76 240.149 122.2 240.077 122.2 238.352C122.2 238.352 123.926 238.425 123.784 237.276C123.784 237.276 123.352 235.861 121.912 235.429C121.912 235.429 121.072 239.695 119.56 235.982L118.551 236.127ZM111.756 271.841C95.2701 271.841 79.8139 262.501 79.8139 262.501C106.777 265.159 111.552 239.245 111.552 239.245C111.552 239.245 116.264 265.159 143.226 262.501C143.226 262.501 128.246 271.841 111.756 271.841ZM50.5737 186.069H95.7088V231.601C95.7088 231.601 96.125 245.615 83.356 247.158C83.356 247.158 72.1729 247.032 64.8652 232.651C56.3628 216.741 51.8151 202.273 50.5737 186.069ZM40.74 201.999L43.9046 201.253C44.379 198.693 43.3524 200.427 43.3524 200.427L49.1445 195.692C48.394 191.618 47.7926 187.537 47.4788 183.448H71.6001C71.6001 183.448 69.7392 181.905 70.4169 180.302C70.4169 180.302 69.2748 179.457 69.0208 181.905C69.0208 181.905 66.569 181.82 66.3135 182.579C66.3135 182.579 64.9199 181.567 67.7533 181.228C67.7533 181.228 67.9199 180.131 68.8506 179.71L65.6383 179.541C65.6383 179.541 62.4245 179.246 64.0319 177.896C64.0319 177.896 64.2844 176.84 65.552 178.319L68.2598 178.487C68.2598 178.487 67.7532 177.39 68.4284 177.136C68.4284 177.136 65.8085 176.63 67.2447 175.87L67.1418 174.411H37.3223C37.3223 174.411 37.754 186.699 40.74 201.999ZM71.9952 252.899C67.8742 250.981 68.0816 249.337 68.0816 249.337L68.9972 248.629C70.5529 248.106 69.7311 249.063 69.7311 249.063C69.9149 251.689 72.5444 251.894 72.5444 251.894C73.1849 251.894 72.6377 251.072 72.6377 251.072C70.2572 250.889 72.2708 249.703 72.2708 249.703C72.1794 247.509 73.0941 248.879 73.0941 248.879C75.1071 247.966 74.833 249.063 74.833 249.063C74.1011 250.226 76.2065 250.158 76.2065 250.158C77.58 250.615 76.6618 248.874 76.6618 248.874C72.6387 247.335 67.4375 243.795 63.3436 235.739C57.928 225.606 53.8704 215.415 51.1686 205.17C51.1686 205.17 50.0657 204.7 50.6666 206.493C50.6666 206.493 51.3649 209.38 50.3654 209.479C50.3654 209.479 49.517 209.677 50.2153 210.375C50.2153 210.375 50.766 212.415 49.7675 212.863C49.7675 212.863 48.6194 213.312 50.016 213.857C50.016 213.857 50.6144 216.397 49.268 216.745C49.268 216.745 45.9267 216.994 46.0266 212.863C46.0266 212.863 43.6305 212.516 44.2786 209.727L42.1872 208.582C46.2971 226.118 53.8282 245.724 67.6232 255.091C68.8772 254.22 70.334 253.488 71.9952 252.899ZM80.8525 250.797C83.8736 250.25 84.5824 252.716 84.5824 252.716C87.3043 252.807 87.7862 254.269 87.7862 254.269C89.9835 254.178 90.0502 255.798 90.0502 255.798C90.1421 258.334 88.3349 258.082 88.3349 258.082C86.4358 257.26 85.5899 257.992 85.5899 257.992C84.855 258.813 82.5919 257.992 82.5919 257.992C81.1507 258.996 79.2054 257.625 79.2054 257.625C78.7466 258.265 76.3897 258.082 76.3897 258.082C73.7587 257.352 74.5599 254.361 74.5599 254.361H72.1794C72.5444 255.73 70.3396 256.747 70.3396 256.747C74.0469 258.783 78.1558 260.108 82.7401 260.524C82.7401 260.524 109.598 264.495 109.598 222.658V205.394L108.494 206.391C108.715 208.662 105.829 208.496 105.829 208.496C105.716 212.153 104.717 212.098 104.717 212.098C104.606 215.588 102.829 215.753 102.829 215.753C100.386 215.863 100.885 211.987 100.885 211.987C99.4989 212.098 100.22 208.164 100.22 208.164C99.4437 208.052 98.6375 204.618 98.6375 204.618L98.5567 232.872C98.5567 232.872 97.8704 248.016 83.1351 249.999C83.1351 249.999 82.2757 250.099 80.8691 249.938L80.8525 250.797ZM109.611 201.68L109.598 174.411H79.1688C79.1688 174.411 76.0388 174.267 77.6472 175.364C77.6472 175.364 79.2531 175.955 79.7617 176.63C79.7617 176.63 82.7636 176.924 83.356 178.697C83.356 178.697 86.1466 178.361 86.3991 180.723C86.3991 180.723 85.6793 182.832 82.7205 181.988C82.7205 181.988 81.2817 181.905 80.6909 182.579C80.6909 182.579 79.2953 181.82 77.8154 182.832C75.9901 182.771 74.9645 182.976 74.7421 183.448H98.5567V201.462C98.5567 201.462 99.388 199.577 102.108 200.464L101.665 199.023C101.665 199.023 98.6661 200.186 99.776 197.638C99.776 197.638 100.776 196.862 99.4437 196.087C99.4437 196.087 98.8885 195.09 100.331 195.864C100.331 195.864 101.274 197.914 102.608 198.136C102.608 198.136 101.942 195.975 102.719 195.421C102.719 195.421 101.606 192.763 104.051 194.425C104.051 194.425 105.051 195.533 103.94 196.418C103.94 196.418 103.718 197.416 104.273 197.416C104.273 197.416 104.94 197.416 104.717 196.531C104.717 196.531 104.94 196.087 105.939 196.308C105.939 196.308 105.993 194.369 108.161 196.418C108.787 197.561 109.27 199.315 109.611 201.68ZM114.915 170.828L187.516 170.804C187.516 170.804 189.781 152.405 181.016 132.884L180.721 132.121C172.325 113.425 154.081 94.4006 114.915 91.5642V170.828ZM105.75 143.046L107.948 143.677V144.11L105.351 143.677L105.218 144.143L107.449 144.939L107.282 145.339L104.485 144.708L103.985 145.339C103.985 145.339 106.182 146.302 106.249 146.436C106.316 146.569 106.182 146.635 106.182 146.635L103.686 145.938L103.319 146.369L106.117 147.39L105.551 147.822L103.053 146.924L102.554 147.523L105.617 148.72L105.483 149.217L101.797 148.122L101.364 148.785L104.785 149.948L104.617 150.714L100.798 149.482L100.466 150.281L103.985 151.444L104.019 152.01L99.5667 150.78L99.1987 151.577L103.686 152.708L103.718 153.14L98.633 151.943L98.0336 153.14L103.152 154.558L102.825 154.973C99.4959 153.952 97.0371 153.865 97.0371 153.865L97.1224 155.058C91.9307 153.952 87.0819 153.526 87.0819 153.526C90.9212 138.655 97.0371 138.498 97.0371 138.498C98.901 138.669 100.108 136.37 100.108 136.37C102.07 131.36 104.019 132.724 104.019 132.724C106.309 133.15 109.598 136.304 109.598 136.304L109.571 141.413C107.187 141.233 105.988 141.777 105.75 143.046ZM38.4227 149.081C39.4428 144.426 40.994 139.308 43.3669 134.026C43.3669 134.026 50.9291 131.269 66.6544 135.199C66.6544 135.199 68.7126 135.533 69.7497 134.639C69.7497 134.639 71.1563 132.672 73.8822 134.077C73.8822 134.077 85.4659 139.861 85.6727 141.942L87.4815 142.289V142.845L84.0734 142.617L83.9338 143.192L88.7335 144.162L82.9052 143.54L82.7652 144.095L87.8288 144.997L87.6903 145.621L80.8897 144.788L80.6798 145.412L87.1346 146.592L86.9262 147.065L79.2195 145.898L78.6618 146.454L86.1602 147.896L85.743 148.73L76.9946 147.343L76.717 147.968L85.5347 149.355V150.187C85.5347 150.187 49.02 144.542 38.4227 149.081ZM50.9171 170.81L36.8735 170.804C36.8735 170.804 36.121 165.103 37.1476 156.544L40.8891 155.645C40.8891 155.645 42.4096 155.255 43.7399 156.549C43.7399 156.549 45.3293 157.584 47.6626 156.679C47.6626 156.679 54.0486 154.093 60.6916 155.126C60.6916 155.126 62.8361 154.347 61.1057 154.139C61.1057 154.139 49.3915 153.587 47.021 154.968C47.021 154.968 45.4126 156.368 44.0286 154.347C44.0286 154.347 43.4904 152.966 39.5984 154.832C39.5984 154.832 38.6125 155.66 38.1973 154.968C38.1973 154.968 37.7992 153.605 40.7053 153.311C40.7053 153.311 45.2911 152.344 46.0532 153.657C46.0532 153.657 47.4894 153.951 49.3749 153.38C49.3749 153.38 52.8533 152.758 61.4526 153.451C61.4526 153.451 65.4832 154.332 65.9686 151.914C65.9686 151.914 65.9686 151.568 66.6609 151.568C66.6609 151.568 68.9606 151.568 70.8983 152.19C70.8983 152.19 71.6076 152.587 70.3446 152.95C70.3446 152.95 61.4526 155.505 62.5595 159.044C62.5595 159.044 62.8361 159.891 68.1132 159.82C68.1132 159.82 69.0138 160.304 67.9064 160.372L50.5526 160.097C50.5526 160.097 49.0973 161.272 47.9206 160.719C47.9206 160.719 46.8142 162.031 48.1304 163.689C48.1304 163.689 49.5827 165.017 49.4427 166.676C49.4427 166.676 50.2579 167.021 51.0355 168.056L54.4431 168.195C54.4431 168.195 54.5832 166.797 55.414 165.899C55.414 165.899 55.9517 164.587 56.7975 164.448C56.7975 164.448 59.8763 166.053 58.2684 167.366L50.9171 170.81ZM83.5448 151.882C83.5448 151.882 71.4801 152.448 65.6604 156.421C65.6604 156.421 63.3562 158.276 66.5118 158.388C66.5118 158.388 71.825 157.506 71.7698 160.43H87.6381C87.6381 160.43 87.6381 159.568 86.5126 159.513C86.5126 159.513 75.2642 160.018 75.2642 157.545C75.3084 155.892 78.0689 154.005 83.5448 151.882ZM109.598 165.219L109.599 170.828L87.4704 170.829C87.4704 170.829 88.8991 168.157 90.7244 168.281C90.7244 168.281 92.0477 164.863 93.3067 164.927C93.3067 164.927 94.9422 165.08 94.8177 167.151L96.2926 168.094H99.9432C99.9432 168.094 98.9613 164.488 102.425 164.863V161.785C102.425 161.785 103.836 160.404 96.6059 160.341L90.9147 160.466C90.9147 160.466 91.7701 158.117 88.6225 157.99L78.7752 157.739C78.7752 157.739 76.3199 157.677 78.0187 156.231C78.0187 156.231 80.3124 153.681 83.5849 153.404C83.5849 153.404 84.2405 153.719 83.2094 154.221C83.2094 154.221 81.0428 154.974 81.2295 156.358C81.2295 156.358 81.5709 157.487 83.2702 157.236C83.2702 157.236 91.0402 156.708 97.5516 158.87C97.5516 158.87 106.494 161.659 109.598 165.219ZM48.8358 161.532C48.8358 161.532 52.7017 165.503 52.3573 167.218H53.7996C53.7996 167.218 55.0686 162.838 58.0646 163.113C58.0646 163.113 60.4802 163.185 62.2121 167.232H63.2714C63.2714 167.232 63.8708 162.883 67.5374 162.975C67.5374 162.975 70.3275 162.77 71.5715 167.14H72.5383C72.5383 167.14 74.0398 163.159 76.9414 163.251C76.9414 163.251 79.7531 162.862 80.9971 166.909H82.102C82.102 166.909 83.1442 163.342 85.7686 163.251C85.7686 163.251 88.3283 162.955 89.9418 167.047H90.2636C90.2636 167.047 90.7465 163.435 93.9955 163.435C93.9955 163.435 96.7404 163.644 97.8483 167.276H98.7218C98.7218 167.276 98.6967 164.216 101.258 163.663V162.009L48.8358 161.532ZM84.3901 170.829H55.0832L60.2503 168.281L64.1785 168.346C64.1785 168.346 65.0615 164.488 66.6995 164.614C66.6995 164.614 68.5861 164.763 68.6503 166.9L70.69 168.346H73.6498C73.6498 168.346 74.1779 164.802 76.7607 165.053C76.7607 165.053 78.2712 165.518 79.4042 168.219H82.6778C82.6778 168.219 83.2094 165.053 84.7817 165.053C84.7817 165.053 86.9212 164.953 87.2375 168.094L84.3901 170.829ZM43.7068 132.121C52.0998 113.425 70.4344 94.4006 109.598 91.5642V133.436C109.598 133.436 103.269 129.119 101.132 131.499C101.132 131.499 97.8503 135.175 96.1741 135.865C96.1741 135.865 92.0492 138.704 90.9819 140.314C90.9819 140.314 87.1281 136.709 84.9318 135.316C84.9318 135.316 82.9363 134.419 80.6417 135.714L73.7602 130.737C73.7602 130.737 71.065 129.442 67.574 131.034C67.574 131.034 65.4782 131.731 63.5836 131.632C59.9772 131.062 53.3508 131.227 43.7068 132.121ZM195.065 124.201C195.065 124.201 201.634 132.762 196.525 134.124C196.525 134.124 191.694 135.852 194.063 124.564C194.244 123.823 194.708 123.584 195.065 124.201ZM29.7697 124.201C29.7697 124.201 23.202 132.762 28.3114 134.124C28.3114 134.124 33.1406 135.852 30.7712 124.564C30.5915 123.823 30.1266 123.584 29.7697 124.201ZM84.3545 87.6085C84.3545 85.5287 86.0432 83.8432 88.128 83.8432C90.2104 83.8432 91.9006 85.5287 91.9006 87.6085C91.9006 89.6878 90.2104 91.3718 88.128 91.3718C86.0432 91.3718 84.3545 89.6878 84.3545 87.6085ZM76.5147 90.2114C76.5147 88.2228 78.1317 86.6085 80.1266 86.6085C82.1206 86.6085 83.7365 88.2228 83.7365 90.2114C83.7365 92.202 82.1206 93.8148 80.1266 93.8148C78.1317 93.8148 76.5147 92.202 76.5147 90.2114ZM69.1609 93.4135C69.1609 91.6143 70.6227 90.1553 72.4259 90.1553C74.2276 90.1553 75.6884 91.6143 75.6884 93.4135C75.6884 95.2117 74.2276 96.6712 72.4259 96.6712C70.6227 96.6712 69.1609 95.2117 69.1609 93.4135ZM62.9837 97.527C62.9837 95.8285 64.3632 94.4532 66.0655 94.4532C67.7653 94.4532 69.1438 95.8285 69.1438 97.527C69.1438 99.226 67.7653 100.602 66.0655 100.602C64.3632 100.602 62.9837 99.226 62.9837 97.527ZM57.0852 101.864C57.0852 100.202 58.4351 98.8548 60.0997 98.8548C61.7669 98.8548 63.1152 100.202 63.1152 101.864C63.1152 103.527 61.7669 104.874 60.0997 104.874C58.4351 104.874 57.0852 103.527 57.0852 101.864ZM51.7388 106.714C51.7388 105.053 53.0877 103.706 54.7544 103.706C56.42 103.706 57.7714 105.053 57.7714 106.714C57.7714 108.377 56.42 109.724 54.7544 109.724C53.0877 109.724 51.7388 108.377 51.7388 106.714ZM47.5567 112.407C47.5567 110.853 48.8212 109.593 50.3769 109.593C51.9356 109.593 53.1987 110.853 53.1987 112.407C53.1987 113.961 51.9356 115.221 50.3769 115.221C48.8212 115.221 47.5567 113.961 47.5567 112.407ZM43.5276 117.671C43.5276 116.116 44.7906 114.857 46.3488 114.857C47.9066 114.857 49.1691 116.116 49.1691 117.671C49.1691 119.225 47.9066 120.485 46.3488 120.485C44.7906 120.485 43.5276 119.225 43.5276 117.671ZM40.6782 123.449C40.6782 122.033 41.8278 120.882 43.251 120.882C44.6691 120.882 45.8212 122.033 45.8212 123.449C45.8212 124.867 44.6691 126.017 43.251 126.017C41.8278 126.017 40.6782 124.867 40.6782 123.449ZM38.1145 128.888C38.1145 127.642 39.125 126.632 40.3755 126.632C41.6235 126.632 42.635 127.642 42.635 128.888C42.635 130.133 41.6235 131.141 40.3755 131.141C39.125 131.141 38.1145 130.133 38.1145 128.888ZM36.3128 134.28C36.3128 133.034 37.3248 132.025 38.5728 132.025C39.8218 132.025 40.8333 133.034 40.8333 134.28C40.8333 135.526 39.8218 136.536 38.5728 136.536C37.3248 136.536 36.3128 135.526 36.3128 134.28ZM34.8575 139.377C34.8575 138.262 35.7641 137.359 36.8806 137.359C37.998 137.359 38.9036 138.262 38.9036 139.377C38.9036 140.493 37.998 141.397 36.8806 141.397C35.7641 141.397 34.8575 140.493 34.8575 139.377ZM33.8078 144.055C33.8078 143.074 34.604 142.276 35.5874 142.276C36.5703 142.276 37.3685 143.074 37.3685 144.055C37.3685 145.036 36.5703 145.831 35.5874 145.831C34.604 145.831 33.8078 145.036 33.8078 144.055ZM32.9062 148.419C32.9062 147.439 33.7029 146.644 34.6863 146.644C35.6717 146.644 36.4679 147.439 36.4679 148.419C36.4679 149.401 35.6717 150.198 34.6863 150.198C33.7029 150.198 32.9062 149.401 32.9062 148.419ZM32.1452 152.787C32.1452 151.806 32.9423 151.01 33.9258 151.01C34.9102 151.01 35.7064 151.806 35.7064 152.787C35.7064 153.768 34.9102 154.563 33.9258 154.563C32.9423 154.563 32.1452 153.768 32.1452 152.787ZM31.5914 157.141C31.5914 156.161 32.3876 155.366 33.3711 155.366C34.354 155.366 35.1527 156.161 35.1527 157.141C35.1527 158.123 34.354 158.919 33.3711 158.919C32.3876 158.919 31.5914 158.123 31.5914 157.141ZM30.8977 161.301C30.8977 160.32 31.6954 159.524 32.6783 159.524C33.6612 159.524 34.4594 160.32 34.4594 161.301C34.4594 162.283 33.6612 163.077 32.6783 163.077C31.6954 163.077 30.8977 162.283 30.8977 161.301ZM30.9685 165.668C30.9685 164.686 31.7651 163.89 32.7466 163.89C33.73 163.89 34.5277 164.686 34.5277 165.668C34.5277 166.649 33.73 167.444 32.7466 167.444C31.7651 167.444 30.9685 166.649 30.9685 165.668ZM190.452 165.668C190.452 164.686 191.248 163.89 192.232 163.89C193.215 163.89 194.013 164.686 194.013 165.668C194.013 166.649 193.215 167.444 192.232 167.444C191.248 167.444 190.452 166.649 190.452 165.668ZM190.521 161.301C190.521 160.32 191.319 159.524 192.302 159.524C193.284 159.524 194.082 160.32 194.082 161.301C194.082 162.283 193.284 163.077 192.302 163.077C191.319 163.077 190.521 162.283 190.521 161.301ZM189.826 157.141C189.826 156.161 190.627 155.366 191.608 155.366C192.591 155.366 193.388 156.161 193.388 157.141C193.388 158.123 192.591 158.919 191.608 158.919C190.627 158.919 189.826 158.123 189.826 157.141ZM189.274 152.787C189.274 151.806 190.071 151.01 191.055 151.01C192.038 151.01 192.834 151.806 192.834 152.787C192.834 153.768 192.038 154.563 191.055 154.563C190.071 154.563 189.274 153.768 189.274 152.787ZM188.511 148.419C188.511 147.439 189.309 146.644 190.293 146.644C191.276 146.644 192.073 147.439 192.073 148.419C192.073 149.401 191.276 150.198 190.293 150.198C189.309 150.198 188.511 149.401 188.511 148.419ZM187.611 144.055C187.611 143.074 188.408 142.276 189.391 142.276C190.375 142.276 191.172 143.074 191.172 144.055C191.172 145.036 190.375 145.831 189.391 145.831C188.408 145.831 187.611 145.036 187.611 144.055ZM186.075 139.377C186.075 138.262 186.981 137.359 188.098 137.359C189.216 137.359 190.122 138.262 190.122 139.377C190.122 140.493 189.216 141.397 188.098 141.397C186.981 141.397 186.075 140.493 186.075 139.377ZM184.145 134.28C184.145 133.034 185.158 132.025 186.406 132.025C187.655 132.025 188.667 133.034 188.667 134.28C188.667 135.526 187.655 136.536 186.406 136.536C185.158 136.536 184.145 135.526 184.145 134.28ZM182.344 128.888C182.344 127.642 183.357 126.632 184.606 126.632C185.855 126.632 186.866 127.642 186.866 128.888C186.866 130.133 185.855 131.141 184.606 131.141C183.357 131.141 182.344 130.133 182.344 128.888ZM179.159 123.449C179.159 122.033 180.309 120.882 181.729 120.882C183.151 120.882 184.304 122.033 184.304 123.449C184.304 124.867 183.151 126.017 181.729 126.017C180.309 126.017 179.159 124.867 179.159 123.449ZM175.811 117.671C175.811 116.116 177.074 114.857 178.632 114.857C180.188 114.857 181.451 116.116 181.451 117.671C181.451 119.225 180.188 120.485 178.632 120.485C177.074 120.485 175.811 119.225 175.811 117.671ZM171.78 112.407C171.78 110.853 173.044 109.593 174.603 109.593C176.159 109.593 177.421 110.853 177.421 112.407C177.421 113.961 176.159 115.221 174.603 115.221C173.044 115.221 171.78 113.961 171.78 112.407ZM167.208 106.714C167.208 105.053 168.558 103.706 170.226 103.706C171.892 103.706 173.241 105.053 173.241 106.714C173.241 108.377 171.892 109.724 170.226 109.724C168.558 109.724 167.208 108.377 167.208 106.714ZM161.863 101.864C161.863 100.202 163.216 98.8548 164.88 98.8548C166.544 98.8548 167.895 100.202 167.895 101.864C167.895 103.527 166.544 104.874 164.88 104.874C163.216 104.874 161.863 103.527 161.863 101.864ZM155.836 97.527C155.836 95.8285 157.215 94.4532 158.917 94.4532C160.618 94.4532 161.995 95.8285 161.995 97.527C161.995 99.226 160.618 100.602 158.917 100.602C157.215 100.602 155.836 99.226 155.836 97.527ZM149.291 93.4135C149.291 91.6143 150.752 90.1553 152.554 90.1553C154.357 90.1553 155.819 91.6143 155.819 93.4135C155.819 95.2117 154.357 96.6712 152.554 96.6712C150.752 96.6712 149.291 95.2117 149.291 93.4135ZM141.243 90.2114C141.243 88.2228 142.858 86.6085 144.853 86.6085C146.848 86.6085 148.464 88.2228 148.464 90.2114C148.464 92.202 146.848 93.8148 144.853 93.8148C142.858 93.8148 141.243 92.202 141.243 90.2114ZM133.08 87.6085C133.08 85.5287 134.769 83.8432 136.852 83.8432C138.936 83.8432 140.624 85.5287 140.624 87.6085C140.624 89.6878 138.936 91.3718 136.852 91.3718C134.769 91.3718 133.08 89.6878 133.08 87.6085ZM116.095 274.121C193.144 272.929 190.906 168.988 190.906 168.988C197.813 168.205 194.847 163.139 194.847 163.139C195.895 160.875 194.499 159.032 194.499 159.032C196.259 158.146 194.062 154.852 194.062 154.852C195.735 152.153 193.277 149.526 193.277 149.526C194.515 148.133 192.651 145.417 192.651 145.417C193.697 143.226 191.602 140.979 191.602 140.979C192.651 138.019 190.295 135.478 190.295 135.478C191.342 131.56 188.375 130.762 188.375 130.762C189.423 126.219 185.915 124.912 185.915 124.912C186.615 123.867 186.353 122.737 186.353 122.737C188.446 123.083 192.127 122.563 192.127 122.563C189.597 141.066 196.679 140.18 196.679 140.18C205.768 138.596 196.156 121.865 196.156 121.865C200.795 121.082 205.784 120.718 205.784 120.718C213.668 120.632 215.31 116.103 215.31 116.103C215.31 116.103 222.006 130.936 218.615 153.035C218.615 153.035 201.953 158.636 201.621 174.037C201.621 174.037 200.732 190.38 217.554 197.472C217.554 197.472 214.896 218.82 193.898 242.661C193.898 242.661 171.584 241.214 168.555 264.531C168.555 264.531 147.953 278.524 127.81 280.887C127.81 280.887 123.476 276.273 115.962 276.201H108.875C101.36 276.273 97.025 280.887 97.025 280.887C76.8852 278.524 56.28 264.531 56.28 264.531C53.2514 241.214 30.9378 242.661 30.9378 242.661C9.93961 218.82 7.28055 197.472 7.28055 197.472C24.1051 190.38 23.216 174.037 23.216 174.037C22.8827 158.636 6.22122 153.035 6.22122 153.035C2.82979 130.936 9.52681 116.103 9.52681 116.103C9.52681 116.103 11.166 120.632 19.0514 120.718C19.0514 120.718 24.0398 121.082 28.6793 121.865C28.6793 121.865 19.0675 138.596 28.1562 140.18C28.1562 140.18 35.2395 141.066 32.7094 122.563C32.7094 122.563 36.3881 123.083 38.4829 122.737C38.4829 122.737 38.2204 123.867 38.9192 124.912C38.9192 124.912 35.4137 126.219 36.4599 130.762C36.4599 130.762 33.4945 131.56 34.5427 135.478C34.5427 135.478 32.1858 138.019 33.2335 140.979C33.2335 140.979 31.1386 143.226 32.1848 145.417C32.1848 145.417 30.3219 148.133 31.5598 149.526C31.5598 149.526 29.1 152.153 30.7757 154.852C30.7757 154.852 28.5774 158.146 30.3374 159.032C30.3374 159.032 28.9424 160.875 29.9886 163.139C29.9886 163.139 27.0222 168.205 33.9313 168.988C33.9313 168.988 31.6914 272.929 108.74 274.121H116.095ZM197.284 114.225C197.284 114.225 196.455 109.752 197.064 106.94L186.336 115.492C186.336 115.492 184.793 116.925 185.068 118.579L191.122 116.485C191.551 116.683 191.678 117.013 191.508 117.477L185.731 119.847C185.731 119.847 186.313 120.344 189.298 119.847L199.47 117.477C199.47 117.477 198.335 116.349 198.003 115.547L193.272 116.785C192.863 116.581 192.701 116.272 192.787 115.856L197.284 114.225ZM187.944 111.823C187.944 111.823 190.727 110.608 188.987 106.145C188.987 106.145 179.351 78.2296 158.457 73.9433C158.457 73.9433 157.358 81.1692 150.227 81.5119C150.227 81.5119 141.189 82.0851 138.952 82.1422C138.952 82.1422 141.433 83.3046 142.064 85.192C142.064 85.192 144.286 83.8763 146.771 84.8498C146.771 84.8498 149.368 86.2657 150.287 88.341C150.287 88.341 153.973 87.5249 155.523 89.1432C155.523 89.1432 157.187 90.5902 157.589 92.4215C157.589 92.4215 160.244 92.1364 161.85 93.2241C161.85 93.2241 163.456 94.8435 164.032 96.7329C164.032 96.7329 166.514 96.1026 168.006 97.7074C168.006 97.7074 170.014 98.6058 169.842 101.083C169.842 101.083 174.906 100.913 175.136 107.111C175.136 107.111 179.267 107.799 179.152 112.853C179.152 112.853 182.553 112.754 183.414 116.304C184.212 114.832 185.723 113.338 187.944 111.823ZM141.444 72.7549C141.444 72.7549 141.494 71.1024 139.833 71.6821L118.685 78.9727C118.685 78.9727 118.073 79.2017 118.073 79.8901C118.073 79.8901 118.089 80.7238 119.627 80.2774L139.942 76.3042C140.97 75.978 141.472 74.7946 141.444 72.7549ZM111.728 89.4964C119.435 88.1411 129.371 90.3332 129.371 90.3332C127.254 86.1104 132.018 82.3427 132.018 82.3427L116.867 83.5657C116.603 87.4306 111.635 87.6571 111.635 87.6571C111.635 87.6571 106.84 87.4306 106.575 83.5657L91.4232 82.3427C91.4232 82.3427 96.1857 86.1104 94.0682 90.3332C94.0682 90.3332 104.021 88.1411 111.728 89.4964ZM83.3916 72.7549C83.3916 72.7549 83.3424 71.1024 85.0036 71.6821L106.152 78.9727C106.152 78.9727 106.763 79.2017 106.763 79.8901C106.763 79.8901 106.748 80.7238 105.209 80.2774L84.8946 76.3042C83.866 75.978 83.364 74.7946 83.3916 72.7549ZM36.8921 111.823C36.8921 111.823 34.1085 110.608 35.8479 106.145C35.8479 106.145 45.4859 78.2296 66.3808 73.9433C66.3808 73.9433 67.4771 81.1692 74.6076 81.5119C74.6076 81.5119 83.6477 82.0851 85.8846 82.1422C85.8846 82.1422 83.4017 83.3046 82.7717 85.192C82.7717 85.192 80.5493 83.8763 78.0679 84.8498C78.0679 84.8498 75.468 86.2657 74.5499 88.341C74.5499 88.341 70.8612 87.5249 69.3125 89.1432C69.3125 89.1432 67.6498 90.5902 67.2482 92.4215C67.2482 92.4215 64.5926 92.1364 62.9867 93.2241C62.9867 93.2241 61.3798 94.8435 60.806 96.7329C60.806 96.7329 58.3221 96.1026 56.8312 97.7074C56.8312 97.7074 54.8221 98.6058 54.9948 101.083C54.9948 101.083 49.9306 100.913 49.7002 107.111C49.7002 107.111 45.5697 107.799 45.6857 112.853C45.6857 112.853 42.2821 112.754 41.4217 116.304C40.6225 114.832 39.1145 113.338 36.8921 111.823ZM27.5518 114.225C27.5518 114.225 28.3806 109.752 27.7742 106.94L38.4985 115.492C38.4985 115.492 40.0457 116.925 39.7691 118.579L33.7144 116.485C33.2877 116.683 33.1567 117.013 33.3289 117.477L39.1059 119.847C39.1059 119.847 38.5231 120.344 35.5382 119.847L25.3666 117.477C25.3666 117.477 26.5016 116.349 26.833 115.547L31.5663 116.785C31.9735 116.581 32.1341 116.272 32.0513 115.856L27.5518 114.225ZM151.116 77.2857C151.116 77.2857 147.722 77.6179 147.028 75.2385C147.028 75.2385 145.599 69.43 151.593 68.48C151.593 68.48 155.334 68.3197 157.198 71.5629C157.198 71.5629 179.595 75.1247 190.771 107.187C190.771 107.187 191.203 108.342 191.683 108.172C191.683 108.172 192.478 108.205 192.098 106.45C192.098 106.45 182.7 66.4278 150.577 65.8305C150.577 65.8305 142.443 66.6898 142.912 73.9303C142.912 73.9303 143.716 80.5023 150.972 79.8325C150.972 79.8325 156.553 78.5623 156.351 73.3946C156.351 73.3946 156.283 69.8348 151.443 70.0362C151.443 70.0362 147.865 70.0362 148.145 73.6632C148.794 75.6839 149.785 76.8914 151.116 77.2857ZM34.2536 247.108C34.2536 247.108 32.7581 244.819 35.0518 244.619C35.0518 244.619 50.1169 245.417 54.2057 262.837C54.2057 262.837 48.0215 249.596 37.3479 249.297C36.1426 249.338 35.112 248.608 34.2536 247.108ZM190.581 247.108C190.581 247.108 192.077 244.819 189.784 244.619C189.784 244.619 174.72 245.417 170.631 262.837C170.631 262.837 176.815 249.596 187.489 249.297C188.695 249.338 189.725 248.608 190.581 247.108ZM218.804 156.98L218.915 155.076C218.915 155.076 207.946 157.355 204.405 171.72C204.405 171.72 202.291 184.622 211.887 191.602C203.273 178.584 205.58 167.042 218.804 156.98ZM209.318 108.765C209.318 108.765 206.351 108.795 206.253 112.348C206.253 112.348 206.637 114.517 208.55 115.28C208.55 115.28 209.336 116.427 207.258 116.235C207.258 116.235 204.129 115.042 204.272 111.536C204.272 111.536 205.276 106.55 209.318 106.74C209.318 106.74 219.979 104.564 221.016 140.409C221.016 140.409 221.101 140.609 221.33 140.624C221.33 140.624 221.656 140.587 221.707 139.741C221.707 139.741 224.801 101.071 208.639 100.274C208.639 100.274 199.145 100.846 198.652 110.453C198.652 110.453 199.261 119.487 207.94 118.492C207.94 118.492 214.153 118.027 213.668 113.518C213.278 110.562 211.723 109.022 209.318 108.765ZM6.03181 156.98L5.91962 155.076C5.91962 155.076 16.8908 157.355 20.4299 171.72C20.4299 171.72 22.5444 184.622 12.9476 191.602C21.5634 178.584 19.2567 167.042 6.03181 156.98ZM73.7206 77.2857C73.7206 77.2857 77.1146 77.6179 77.8079 75.2385C77.8079 75.2385 79.2391 69.43 73.2437 68.48C73.2437 68.48 69.5022 68.3197 67.6388 71.5629C67.6388 71.5629 45.2414 75.1247 34.0648 107.187C34.0648 107.187 33.6336 108.342 33.1522 108.172C33.1522 108.172 32.3575 108.205 32.738 106.45C32.738 106.45 42.136 66.4278 74.2587 65.8305C74.2587 65.8305 82.3952 66.6898 81.9243 73.9303C81.9243 73.9303 81.1186 80.5023 73.8631 79.8325C73.8631 79.8325 68.2834 78.5623 68.4852 73.3946C68.4852 73.3946 68.5524 69.8348 73.3917 70.0362C73.3917 70.0362 76.971 70.0362 76.6919 73.6632C76.0413 75.6839 75.0534 76.8914 73.7206 77.2857ZM15.5183 108.765C15.5183 108.765 18.4857 108.795 18.5815 112.348C18.5815 112.348 18.199 114.517 16.2859 115.28C16.2859 115.28 15.4992 116.427 17.576 116.235C17.576 116.235 20.7075 115.042 20.5624 111.536C20.5624 111.536 19.5594 106.55 15.5183 106.74C15.5183 106.74 4.85703 104.564 3.82124 140.409C3.82124 140.409 3.73575 140.609 3.50709 140.624C3.50709 140.624 3.17903 140.587 3.13099 139.741C3.13099 139.741 0.0365947 101.071 16.1975 100.274C16.1975 100.274 25.6919 100.846 26.1854 110.453C26.1854 110.453 25.5754 119.487 16.8958 118.492C16.8958 118.492 10.6814 118.027 11.1659 113.518C11.5568 110.562 13.1147 109.022 15.5183 108.765Z"
        fill="#231F20"
      />
      <path
        d="M110.039 34.1708C110.039 39.4837 105.724 43.7907 100.4 43.7907C95.0772 43.7907 90.762 39.4837 90.762 34.1708C90.762 28.8579 95.0772 24.5509 100.4 24.5509C105.724 24.5509 110.039 28.8579 110.039 34.1708Z"
        fill="#CB0006"
      />
      <path
        d="M76.1125 17.4863C82.6393 18.2204 89.4968 17.9644 92.5033 29.239L89.6493 33.5148C87.5107 26.0804 83.3626 22.3377 76.1271 21.0804L76.1125 17.4863Z"
        fill="#CB0006"
      />
      <path
        d="M87.8642 13.7121C88.4677 12.4417 89.2457 11.2148 88.8634 9.69845C90.4623 9.50587 92.0972 9.42061 93.4487 8.48719L95.0222 5.73777L97.8969 5.32962L99.745 15.4474C101.261 16.1172 104.056 16.5499 105.741 16.1534C107.269 15.7939 107.696 14.6499 108.951 14.2994C110.68 13.8163 111.411 14.6215 113.106 13.8642L110.853 21.2317L106.422 26.5349L98.1158 25.4456L92.0148 29.6497L90.8122 25.4508L86.0108 19.6532L79.7505 16.8935L79.8382 15.7036L86.0669 15.2019L87.8642 13.7121Z"
        fill="#F1BF00"
      />
      <path
        d="M79.6024 13.6652C85.8137 13.0432 85.6944 10.4468 86.2959 8.07527L89.2349 7.39359L87.722 13.9119C85.294 15.4308 82.0793 15.3795 79.1926 15.9829L79.6024 13.6652Z"
        fill="#066AB2"
      />
      <path
        d="M75.9834 24.0276L85.0631 24.3168C87.2914 29.3299 92.9103 34.343 91.4382 39.3561C84.7873 49.3167 80.0299 51.8757 76.4664 49.7679L75.5209 44.7545L75.8378 39.1296L72.7959 37.3315L75.6619 30.9612L75.9834 24.0276Z"
        fill="#FFCCAA"
      />
      <path
        fill-rule="evenodd"
        clip-rule="evenodd"
        d="M59.4877 28.7585C59.4877 28.7585 49.6053 19.0249 67.7989 9.40501C67.7989 9.40501 69.3335 8.75098 72.2764 7.87911C73.2776 7.58248 75.8078 7.19246 77.1301 6.86258C78.8024 6.44537 79.3614 6.08348 81.5292 5.67532C81.5292 5.67532 89.9684 4.58556 92.132 0.264137H96.5923L97.7966 1.3534H114.914L115.989 0.0241394L118.154 0.39341L120.558 0.264137L122.487 1.59389C122.487 1.59389 131.163 0.393402 149.355 6.76406C149.355 6.76406 161.995 9.75674 171.395 5.43432C171.395 5.43432 172.358 21.0581 156.702 19.1371C156.702 19.1371 144.782 17.5679 136.104 13.006C136.104 13.006 128.024 9.64551 122.487 11.326C122.487 11.326 131.293 12.766 141.046 17.9371C141.046 17.9371 153.575 23.9571 162.845 20.2264C162.845 20.2264 160.311 33.5599 138.511 24.3083C138.511 24.3083 125.741 15.0552 117.913 16.7362C117.913 16.7362 125.982 16.6254 139.473 26.597C139.473 26.597 147.672 30.9185 156.702 29.719C156.702 29.719 157.424 35.6096 143.932 35.3692C143.932 35.3692 146.579 37.5306 152.723 37.0501C152.723 37.0501 145.985 46.9115 129.719 33.6887C129.719 33.6887 118.365 24.9171 113.318 26.1181C113.318 26.1181 119.486 28.279 128.034 36.5706C128.034 36.5706 133.57 41.9808 145.375 41.9808C145.375 41.9808 144.173 45.5827 138.99 44.8618C138.99 44.8618 142.971 46.7822 131.885 50.2719L132.367 55.9236L125.956 57.7324V64.105L120.318 63.4948L120.078 69.8659L113.318 68.9064L109.598 74.0761C109.598 74.0761 104.421 72.0269 103.459 68.9064L98.7589 72.3962L95.7424 67.225H93.3373L95.0205 62.5338C95.0205 62.5338 95.262 57.1246 82.2516 54.9631C82.2516 54.9631 75.5152 55.4431 72.4992 48.352H74.9042C74.9042 48.352 75.8294 47.8489 74.5132 46.4034C74.5132 46.4034 73.5925 44.8928 74.6447 44.1047C74.6447 44.1047 74.2486 42.1346 75.0398 41.7408C75.0398 41.7408 74.5132 40.2953 75.1713 39.6395C75.1713 39.6395 73.0764 39.4331 71.7888 37.8047C71.7888 37.8047 71.5343 36.9003 71.8295 36.3522C72.588 34.9398 74.1171 31.9291 75.3033 28.4729C75.3033 28.4729 73.9856 26.0424 74.9078 23.2832V21.7069C64.574 21.8392 62.7979 23.1534 59.4877 28.7585ZM127.534 42.0685C127.534 42.0685 128.491 45.3032 132.807 45.3032C132.807 45.3032 133.528 45.1839 133.528 45.8117C133.528 45.8117 133.617 46.3498 132.75 46.3188C132.75 46.3188 130.15 46.3188 128.767 45.6614C128.767 45.6614 128.012 48.6791 131.729 48.4401C131.729 48.4401 134.553 48.5364 136.708 46.3498C134.94 44.3096 129.041 41.8651 127.534 42.0685ZM118.602 39.8219L119.819 44.1067C119.819 44.1067 119.797 45.1704 121.592 45.4906C121.592 45.4906 124.623 46.194 127.357 45.8743C127.357 45.8743 125.883 38.4159 117.768 34.7293C117.768 34.7293 118.154 36.5847 118.089 37.3518C118.089 37.3518 124.346 42.8912 123.832 43.7871C123.634 43.989 123.495 44.019 123.287 43.8356C120.846 41.6466 119.221 39.89 118.602 39.8219ZM121.477 49.6877C121.477 49.6877 121.673 54.4831 124.438 54.7778C124.438 54.7778 126.38 55.1726 128.948 55.0739C128.948 55.0739 130.528 55.0739 129.934 53.3007C129.934 53.3007 128.489 49.1957 127.401 48.0138C127.401 48.0138 126.879 47.619 125.956 47.5203L122.487 47.1249C122.487 47.1249 125.165 50.4418 127.401 52.4134C127.401 52.4134 128.121 52.9835 127.815 53.2215C127.815 53.2215 127.612 53.5627 126.792 52.9149C123.719 50.3651 121.947 49.2904 121.477 49.6877ZM117.066 53.3007L121.575 53.4976C121.575 53.4976 125.096 60.7556 122.957 60.9525C122.957 60.9525 118.549 61.5097 116.77 58.8822C116.77 58.8822 116.573 56.9457 116.178 55.7648C116.178 55.7648 118.879 57.0099 120.425 58.8822C120.425 58.8822 121.807 59.1438 120.82 57.9954C118.715 55.8565 117.464 54.2912 117.066 53.3007ZM108.347 41.1491C108.347 41.1491 113.15 48.5399 112.163 50.5761C110.849 49.7564 109.577 46.6139 108.347 41.1491ZM112.992 47.399C112.992 47.399 112.444 51.0235 115.299 51.5325C115.299 51.5325 118.802 52.4484 121.008 52.244C121.008 52.244 120.906 49.2949 119.171 46.3819H115.807C115.807 46.3819 119.274 50.3496 118.867 50.7569C117.691 50.2574 115.515 49.1391 112.992 47.399ZM111.445 37.9134L116.522 38.2181C116.522 38.2181 119.072 42.9238 118.255 45.0597C118.255 45.0597 110.813 46.1795 108.71 39.3003C108.71 39.3003 113.159 40.5574 115.605 42.8596C115.477 41.8966 114.091 40.2482 111.445 37.9134ZM110.239 33.5379L110.138 36.5897C110.138 36.5897 114.687 37.5056 116.827 36.6924C116.827 36.6924 115.365 32.6606 111.445 29.8122L110.342 31.3378C110.342 31.3378 115.307 34.352 114.914 35.2679C114.603 35.5295 113.045 34.9528 110.239 33.5379ZM92.647 34.1717C92.647 29.6804 96.2951 26.0409 100.796 26.0409C105.297 26.0409 108.946 29.6804 108.946 34.1717C108.946 38.663 105.297 42.3045 100.796 42.3045C96.2951 42.3045 92.647 38.663 92.647 34.1717ZM110.865 55.9827L112.37 59.0531L115.747 59.3532C115.747 59.3532 115.378 53.5021 112.52 51.4809C112.52 51.4809 113.121 54.3328 112.52 54.4831C114.346 57.4087 113.794 57.9087 110.865 55.9827ZM113.318 67.225C113.318 67.225 116.348 68.2746 114.914 65.2739C114.914 65.2739 117.773 68.3448 115.898 64.6727L113.318 60.4029L116.8 60.5542C116.8 60.5542 119.055 64.7549 118.303 68.4249C116.551 68.6995 114.888 68.2997 113.318 67.225ZM104.482 66.9248H107.188L108.39 70.2257L108.911 66.9248H111.919C111.919 66.9248 110.634 71.6456 108.911 72.8466C106.275 70.9261 104.799 68.952 104.482 66.9248ZM97.646 67.225H98.8478L99.6003 68.7246L100.352 67.0762H102.527L99.4507 70.7447L97.646 67.225ZM98.6977 54.7833H100.352L97.4944 63.7047L109.598 63.8545L106.136 54.6335H108.39L113.318 65.7244H95.0205L98.6977 54.7833ZM96.7444 43.3907L93.3659 53.2822L111.445 53.4335L106.286 42.0409C103.295 44.0766 100.115 44.5256 96.7444 43.3907ZM94.8275 43.1889C94.8275 43.1889 87.8825 53.2822 85.628 53.5833C85.628 53.5833 87.8024 54.0724 90.0592 55.5323C90.0592 55.5323 95.5908 59.5931 96.643 58.6932C96.8248 58.4803 98.2444 55.0658 97.8711 54.2787C97.4443 53.3789 94.1056 53.6026 94.03 52.2405C93.9126 50.127 95.8019 47.7804 96.1156 45.9514C96.3387 44.6506 95.0223 43.5779 94.9641 43.1889H94.8275ZM76.0182 50.6622C76.0182 50.6622 83.4534 52.4504 87.8825 45.4119C87.8825 45.4119 90.0592 41.2909 92.3147 40.0899C92.3147 40.0899 93.2158 41.5915 93.8182 42.0409C93.8182 42.0409 90.5908 45.8613 89.2364 48.2608C83.9739 53.4335 78.8018 53.8303 76.0182 50.6622ZM76.5433 30.9205L74.2306 35.8817C74.2306 35.8817 72.599 38.4445 75.9022 37.8047C75.9022 37.8047 77.1472 37.0371 78.4313 37.4209C78.4313 37.4209 79.0729 37.4209 78.5608 36.1388C78.5608 36.1388 78.4313 34.8566 79.4609 34.9844C79.4609 34.9844 79.3304 36.3948 80.743 37.2921C80.743 37.2921 81.9002 39.3053 81.0001 39.8184C81.0001 39.8184 80.0628 40.2933 80.2119 39.0483L76.8907 39.4331C76.8907 39.4331 77.0568 41.6126 76.5433 41.9959C76.5433 41.9959 75.3485 43.4073 77.2767 42.6392C77.2767 42.6392 77.5523 42.1857 79.1447 42.3766C79.1447 42.3766 80.4177 42.4413 80.4177 41.6141C80.4177 41.6141 80.1637 41.0414 80.6738 40.9141C80.6738 40.9141 81.2466 40.9141 81.2466 41.8676C81.2466 41.8676 81.1185 42.6933 81.7566 43.775C81.7566 43.775 82.1376 46.4586 81.1818 46.4586C81.1818 46.4586 80.5458 46.3453 80.8013 45.1228C80.8013 45.1228 80.3555 43.3937 79.1447 43.6493C79.1447 43.6493 76.8505 43.9514 76.9143 44.8558C76.9143 44.8558 76.6603 45.7591 77.9328 45.7591C77.9328 45.7591 79.0809 45.8233 78.2526 46.8404C78.2526 46.8404 76.977 48.1115 78.0608 48.9382C78.0608 48.9382 79.3841 50.3366 82.2651 48.4286C82.2651 48.4286 84.5337 46.9165 86.3293 44.6273C86.3293 44.6273 88.124 41.4427 90.5191 39.3524C90.5191 39.3524 91.3177 38.5547 90.8187 36.5646C90.8187 36.5646 90.7188 35.3692 89.9207 35.6673C89.9207 35.6673 87.8263 35.2704 86.5286 39.7492C86.5286 39.7492 86.4307 41.5414 85.8323 41.5414C85.8323 41.5414 84.8329 42.2378 84.8329 40.3469C84.8329 40.3469 84.733 38.3558 83.8359 37.6594C83.8359 37.6594 83.1376 36.8633 83.9338 36.4634C83.9338 36.4634 84.235 36.265 85.232 36.6633C85.232 36.6633 86.9272 35.9674 87.8263 34.1747C87.8263 34.1747 88.2244 32.9812 87.6255 31.4876C87.6255 31.4876 86.5286 25.8124 82.3374 25.7132C82.3374 25.7132 80.0779 25.2157 80.2119 26.7083C80.2119 26.7083 80.742 27.6051 82.6371 27.4062C82.6371 27.4062 84.235 27.4062 84.3339 27.8035C84.3339 27.8035 84.235 28.6994 82.7375 28.5992C82.7375 28.5992 80.7747 29.0977 80.2119 30.0938C80.2119 30.0938 80.6416 30.8899 82.3374 30.1935C82.3374 30.1935 83.3359 29.6954 83.5362 30.2927C83.5362 30.2927 83.6361 31.1885 82.6371 31.1885C82.6371 31.1885 80.742 31.5863 80.5448 32.1831C80.5448 32.1831 79.2476 33.378 78.9479 31.9852L77.7496 31.8855C77.7496 31.8855 76.8535 31.3884 77.85 30.4911C77.85 30.4911 78.9479 30.2927 77.85 28.9985C77.85 28.9985 76.8535 28.501 76.7526 29.5967L76.5433 30.9205ZM76.2863 18.5634V19.9358C76.2863 19.9358 87.0909 18.3981 90.1732 32.6776C90.1732 32.6776 90.8157 30.6644 91.4583 29.7681C89.3353 21.2595 84.2797 17.5238 76.2863 18.5634ZM116.955 24.4195C116.955 24.4195 124.338 25.0163 132.12 31.9852C132.12 31.9852 133.407 33.1223 135.428 34.4519C138.115 36.22 142.101 38.3282 146.086 38.5547C146.086 38.5547 137.308 38.7557 130.322 32.5829C126.89 29.0551 122.434 26.3345 116.955 24.4195ZM116.158 21.2349C116.158 21.2349 126.732 21.235 135.513 31.1885C128.489 26.3941 122.037 23.0768 116.158 21.2349ZM117.555 19.4423C117.555 19.4423 124.936 17.849 139.104 29.1969C139.104 29.1969 144.691 33.5775 151.274 33.1796C151.274 33.1796 141.896 34.9718 135.513 28.2023C130.295 23.5337 124.309 20.6147 117.555 19.4423ZM107.378 26.4101C107.378 26.4101 108.627 28.0019 109.598 29.5967C109.598 29.5967 117.354 18.2478 115.96 5.90279C114.801 15.4179 111.941 22.2536 107.378 26.4101ZM122.487 14.2646C122.487 14.2646 128.728 14.464 141.299 21.6328C141.299 21.6328 144.691 25.8124 157.26 24.6189C157.26 24.6189 152.672 28.5992 139.303 22.4289C139.303 22.4289 129.016 15.46 122.487 15.0617V14.2646ZM122.007 7.81873C122.007 7.81873 128.735 5.8111 142.885 12.4122C142.885 12.4122 157.382 19.1822 168.425 13.7305C168.425 13.7305 160.084 22.5687 142.656 13.6152C142.656 13.6152 135.161 8.85187 122.487 8.6224L122.007 7.81873ZM99.4783 9.56636C99.4783 9.56636 101.313 14.7431 107.938 13.6288C107.938 13.6288 107.699 16.2577 102.431 15.5392C99.7168 14.983 99.1671 13.013 99.4783 9.56636ZM99.8764 7.17842L110.012 7.01908C110.012 7.01908 110.412 12.4333 106.182 12.5144C103.07 12.5144 101.248 10.3906 99.8764 7.17842ZM98.3619 2.87654H114.482C114.482 2.87654 114.149 7.97356 113.318 11.2388C113.318 11.2388 113.124 14.0266 108.737 13.3101C108.737 13.3101 113.604 9.80685 110.571 5.66479L99.3177 5.82362L98.3619 2.87654ZM117.516 2.58392H120.228V13.8121H117.516V2.58392ZM80.2119 16.2577C80.2624 16.0058 90.0374 17.6185 89.2626 9.71408C89.2626 9.71408 94.0019 9.83891 94.0752 7.33324C94.0752 7.33324 94.149 5.11867 92.1757 4.60861L92.6877 4.17072H93.7836V3.7328H93.3453C93.3453 3.7328 93.2715 2.12898 94.4417 1.98268C94.4417 1.98268 96.5873 1.08083 97.3177 6.13828C97.3177 6.13828 97.6846 8.69055 97.6846 12.4368C97.6846 12.4368 97.5371 17.7152 104.287 17.3494C104.287 17.3494 107.457 17.5223 108.698 15.2366H111.767C111.767 15.2366 109.574 20.7354 105.883 25.2157C105.883 25.2157 98.4994 21.235 92.6149 27.6051C92.6149 27.6051 89.4543 17.2512 80.2119 17.1525V16.2577ZM80.2119 13.8497C80.2119 13.8497 82.2827 13.5862 84.4759 13.266C84.4759 13.266 86.2299 13.4859 86.0101 9.7392H88.3499C88.3499 9.7392 88.8147 15.0893 83.6722 14.943H80.2119V13.8497ZM76.3831 9.3018H78.5302V16.4741H76.3831V9.3018ZM65.194 18.3445C65.194 18.3445 68.4048 15.5257 74.8937 14.5867V16.5693C71.7602 16.5889 68.4776 17.1811 65.194 18.3445ZM62.9927 14.5867C62.9927 14.5867 57.7634 18.4412 59.0179 25.3399C59.0179 25.3399 62.2287 19.4954 74.8937 20.3316V18.5519C74.8937 18.5519 67.3893 18.4542 61.2141 21.3742C60.5741 20.3957 61.1664 18.1335 62.9927 14.5867Z"
        fill="#231F20"
      />
      <path
        fill-rule="evenodd"
        clip-rule="evenodd"
        d="M95.0466 34.1716C95.0466 31.0036 97.6209 28.4347 100.796 28.4347C103.971 28.4347 106.547 31.0036 106.547 34.1716C106.547 37.3406 103.971 39.909 100.796 39.909C97.6209 39.909 95.0466 37.3406 95.0466 34.1716Z"
        fill="#066AB2"
      />
      <path
        d="M124.183 224.841C124.458 227.622 123.943 230.773 124.35 233.513C124.655 235.563 125.155 237.383 125.783 239.127L124.569 242.001L117.445 242.035C116.022 238.972 115.637 233.759 115.378 231.595C114.95 228.02 115.281 227.994 114.896 224.546L124.183 224.841Z"
        fill="#CB0006"
      />
      <path
        d="M122.75 177.57L121.074 182.188C119.628 182.583 118.25 182.416 116.985 179.948C116.145 178.264 117.969 177.38 118.785 176.137L122.75 177.57Z"
        fill="white"
      />
      <path
        fill-rule="evenodd"
        clip-rule="evenodd"
        d="M116.874 177.614C116.874 177.614 115.59 180.233 117.707 181.273C117.707 181.273 117.352 183.221 119.891 183.221C119.891 183.221 122.754 182.984 123.209 180.363C123.209 180.363 124.859 179.908 126.68 180.494L127.155 179C127.155 179 125.097 178.328 123.274 178.197C123.274 178.197 122.841 175.601 120.085 175.601C120.085 175.601 118.11 175.253 117.98 176.899C117.418 177.089 117.049 177.328 116.874 177.614ZM118.9 177.938C118.9 177.938 116.939 177.506 117.135 179.26C117.135 179.26 117.112 180.623 118.501 181.013C118.501 181.013 118.263 182.117 119.306 182.117L119.956 182.052C119.956 182.052 120.346 180.688 120.997 180.363C120.997 180.363 119.694 180.061 119.694 179.195C119.694 179.195 119.434 178.415 120.931 178.48C120.931 178.48 120.997 178.004 120.152 176.704C120.152 176.704 118.822 175.99 118.9 176.963C119.278 177.639 119.278 177.965 118.9 177.938Z"
        fill="#904B12"
      />
      <path
        d="M118.9 177.938C118.9 177.938 116.939 177.506 117.135 179.26C117.135 179.26 117.112 180.623 118.501 181.013C118.501 181.013 118.263 182.117 119.306 182.117L119.956 182.052C119.956 182.052 120.346 180.688 120.997 180.363C120.997 180.363 119.694 180.061 119.694 179.195C119.694 179.195 119.434 178.415 120.931 178.48C120.931 178.48 120.997 178.004 120.152 176.704C120.152 176.704 118.822 175.99 118.9 176.963C119.278 177.639 119.278 177.965 118.9 177.938M116.874 177.614C116.874 177.614 115.59 180.233 117.707 181.273C117.707 181.273 117.352 183.221 119.891 183.221C119.891 183.221 122.754 182.984 123.209 180.363C123.209 180.363 124.859 179.908 126.68 180.494L127.155 179C127.155 179 125.097 178.328 123.274 178.197C123.274 178.197 122.841 175.601 120.085 175.601C120.085 175.601 118.11 175.253 117.98 176.899C117.418 177.089 117.049 177.328 116.874 177.614V177.614Z"
        stroke="#AA8800"
        stroke-width="0.747611"
      />
      <path
        d="M182.189 181.347L177.563 179.675C177.167 178.231 177.334 176.856 179.807 175.593C181.494 174.755 182.379 176.576 183.625 177.39L182.189 181.347Z"
        fill="white"
      />
      <path
        fill-rule="evenodd"
        clip-rule="evenodd"
        d="M182.145 175.482C182.145 175.482 179.521 174.201 178.479 176.314C178.479 176.314 176.527 175.959 176.527 178.493C176.527 178.493 176.765 181.351 179.391 181.805C179.391 181.805 179.846 183.452 179.26 185.27L180.757 185.744C180.757 185.744 181.429 183.689 181.561 181.87C181.561 181.87 184.162 181.438 184.162 178.687C184.162 178.687 184.511 176.716 182.861 176.586C182.671 176.025 182.432 175.657 182.145 175.482ZM181.82 177.504C181.82 177.504 182.253 175.547 180.496 175.742C180.496 175.742 179.13 175.72 178.739 177.107C178.739 177.107 177.634 176.869 177.634 177.909L177.699 178.558C177.699 178.558 179.065 178.948 179.391 179.597C179.391 179.597 179.693 178.297 180.561 178.297C180.561 178.297 181.343 178.038 181.278 179.532C181.278 179.532 181.754 179.597 183.056 178.754C183.056 178.754 183.772 177.427 182.797 177.504C182.12 177.882 181.793 177.882 181.82 177.504Z"
        fill="#904B12"
      />
      <path
        d="M181.82 177.504C181.82 177.504 182.253 175.547 180.496 175.742C180.496 175.742 179.13 175.72 178.739 177.107C178.739 177.107 177.634 176.869 177.634 177.909L177.699 178.558C177.699 178.558 179.065 178.948 179.391 179.597C179.391 179.597 179.693 178.297 180.561 178.297C180.561 178.297 181.343 178.038 181.278 179.532C181.278 179.532 181.754 179.597 183.056 178.754C183.056 178.754 183.772 177.427 182.797 177.504C182.12 177.882 181.793 177.882 181.82 177.504M182.145 175.482C182.145 175.482 179.521 174.201 178.479 176.314C178.479 176.314 176.527 175.959 176.527 178.493C176.527 178.493 176.765 181.351 179.391 181.805C179.391 181.805 179.846 183.452 179.26 185.27L180.757 185.744C180.757 185.744 181.429 183.689 181.561 181.87C181.561 181.87 184.162 181.438 184.162 178.687C184.162 178.687 184.511 176.716 182.861 176.586C182.671 176.025 182.432 175.657 182.145 175.482V175.482Z"
        stroke="#AA8800"
        stroke-width="0.747611"
      />
      <path
        d="M118.319 232.305L122.945 233.977C123.341 235.421 123.174 236.796 120.701 238.059C119.014 238.896 118.129 237.076 116.883 236.262L118.319 232.305Z"
        fill="white"
      />
      <path
        fill-rule="evenodd"
        clip-rule="evenodd"
        d="M118.363 238.17C118.363 238.17 120.987 239.451 122.029 237.338C122.029 237.338 123.981 237.693 123.981 235.159C123.981 235.159 123.743 232.301 121.117 231.847C121.117 231.847 120.661 230.199 121.248 228.382L119.751 227.908C119.751 227.908 119.078 229.962 118.947 231.782C118.947 231.782 116.345 232.214 116.345 234.964C116.345 234.964 115.997 236.936 117.647 237.065C117.836 237.627 118.076 237.995 118.363 238.17ZM118.688 236.148C118.688 236.148 118.255 238.105 120.012 237.909C120.012 237.909 121.378 237.932 121.769 236.545C121.769 236.545 122.874 236.783 122.874 235.742L122.809 235.094C122.809 235.094 121.443 234.704 121.117 234.055C121.117 234.055 120.815 235.355 119.946 235.355C119.946 235.355 119.165 235.614 119.23 234.12C119.23 234.12 118.753 234.055 117.451 234.898C117.451 234.898 116.735 236.225 117.711 236.148C118.388 235.77 118.714 235.77 118.688 236.148Z"
        fill="#904B12"
      />
      <path
        d="M118.688 236.148C118.688 236.148 118.255 238.105 120.012 237.909C120.012 237.909 121.378 237.932 121.769 236.545C121.769 236.545 122.874 236.783 122.874 235.742L122.809 235.094C122.809 235.094 121.443 234.704 121.117 234.055C121.117 234.055 120.815 235.355 119.946 235.355C119.946 235.355 119.165 235.614 119.23 234.12C119.23 234.12 118.753 234.055 117.451 234.898C117.451 234.898 116.735 236.225 117.711 236.148C118.388 235.77 118.714 235.77 118.688 236.148M118.363 238.17C118.363 238.17 120.987 239.451 122.029 237.338C122.029 237.338 123.981 237.693 123.981 235.159C123.981 235.159 123.743 232.301 121.117 231.847C121.117 231.847 120.661 230.199 121.248 228.382L119.751 227.908C119.751 227.908 119.078 229.962 118.947 231.782C118.947 231.782 116.345 232.214 116.345 234.964C116.345 234.964 115.997 236.936 117.647 237.065C117.836 237.627 118.076 237.995 118.363 238.17V238.17Z"
        stroke="#AA8800"
        stroke-width="0.747611"
      />
      <path
        d="M166.454 236.457L164.368 232.009C165.111 230.709 166.203 229.855 168.846 230.707C170.633 231.305 169.969 233.217 170.274 234.672L166.454 236.457Z"
        fill="white"
      />
      <path
        fill-rule="evenodd"
        clip-rule="evenodd"
        d="M170.578 232.279C170.578 232.279 169.631 229.52 167.397 230.28C167.397 230.28 166.268 228.651 164.472 230.443C164.472 230.443 162.616 232.632 164.151 234.806C164.151 234.806 163.306 236.292 161.604 237.163L162.327 238.555C162.327 238.555 164.258 237.577 165.64 236.383C165.64 236.383 167.785 237.914 169.734 235.969C169.734 235.969 171.377 234.821 170.303 233.565C170.566 233.034 170.657 232.605 170.578 232.279ZM168.916 233.479C168.916 233.479 170.609 232.401 169.228 231.299C169.228 231.299 168.278 230.319 167.019 231.024C167.019 231.024 166.406 230.076 165.669 230.811L165.255 231.316C165.255 231.316 165.945 232.556 165.715 233.245C165.715 233.245 166.851 232.539 167.465 233.151C167.465 233.151 168.2 233.52 167.096 234.53C167.096 234.53 167.387 234.913 168.905 235.235C168.905 235.235 170.352 234.802 169.607 234.169C168.86 233.958 168.63 233.727 168.916 233.479Z"
        fill="#904B12"
      />
      <path
        d="M168.916 233.479C168.916 233.479 170.609 232.401 169.228 231.299C169.228 231.299 168.278 230.319 167.019 231.024C167.019 231.024 166.406 230.076 165.669 230.811L165.255 231.316C165.255 231.316 165.945 232.556 165.715 233.245C165.715 233.245 166.851 232.539 167.465 233.151C167.465 233.151 168.2 233.52 167.096 234.53C167.096 234.53 167.387 234.913 168.905 235.235C168.905 235.235 170.352 234.802 169.607 234.169C168.86 233.958 168.63 233.727 168.916 233.479M170.578 232.279C170.578 232.279 169.631 229.52 167.397 230.28C167.397 230.28 166.268 228.651 164.472 230.443C164.472 230.443 162.616 232.632 164.151 234.806C164.151 234.806 163.306 236.292 161.604 237.163L162.327 238.555C162.327 238.555 164.258 237.577 165.64 236.383C165.64 236.383 167.785 237.914 169.734 235.969C169.734 235.969 171.377 234.821 170.303 233.565C170.566 233.034 170.657 232.605 170.578 232.279V232.279Z"
        stroke="#AA8800"
        stroke-width="0.747611"
      />
      <path
        fill-rule="evenodd"
        clip-rule="evenodd"
        d="M122.826 212.399L121.3 212.787L120.022 213.704L118.603 213.022L117.031 212.905L116.383 211.471L115.256 210.374L115.681 208.86L115.527 207.295L116.826 206.409L117.714 205.11L119.282 205.267L120.798 204.841L121.899 205.966L123.335 206.613L123.451 208.181L124.135 209.599L123.216 210.875L122.826 212.399ZM117.344 209.273C117.344 207.975 118.394 206.923 119.695 206.923C120.994 206.923 122.048 207.975 122.048 209.273C122.048 210.569 120.994 211.621 119.695 211.621C118.394 211.621 117.344 210.569 117.344 209.273Z"
        fill="#904B12"
      />
      <path
        fill-rule="evenodd"
        clip-rule="evenodd"
        d="M144.769 257.952L143.243 258.34L141.965 259.258L140.547 258.576L138.975 258.458L138.326 257.025L137.199 255.927L137.624 254.414L137.47 252.849L138.77 251.963L139.658 250.664L141.225 250.821L142.741 250.395L143.842 251.52L145.279 252.167L145.395 253.735L146.079 255.152L145.16 256.428L144.769 257.952ZM139.287 254.827C139.287 253.529 140.338 252.477 141.639 252.477C142.937 252.477 143.991 253.529 143.991 254.827C143.991 256.122 142.937 257.175 141.639 257.175C140.338 257.175 139.287 256.122 139.287 254.827Z"
        fill="#904B12"
      />
      <path
        fill-rule="evenodd"
        clip-rule="evenodd"
        d="M179.267 212.399L177.741 212.787L176.463 213.704L175.044 213.022L173.472 212.905L172.824 211.471L171.697 210.374L172.122 208.86L171.968 207.295L173.267 206.409L174.155 205.11L175.723 205.267L177.239 204.841L178.34 205.966L179.777 206.613L179.893 208.181L180.577 209.599L179.657 210.875L179.267 212.399ZM173.785 209.273C173.785 207.975 174.835 206.923 176.137 206.923C177.435 206.923 178.489 207.975 178.489 209.273C178.489 210.569 177.435 211.621 176.137 211.621C174.835 211.621 173.785 210.569 173.785 209.273Z"
        fill="#904B12"
      />
      <path
        fill-rule="evenodd"
        clip-rule="evenodd"
        d="M151.144 181.872L149.618 182.26L148.34 183.177L146.922 182.496L145.35 182.378L144.701 180.945L143.574 179.847L143.999 178.333L143.845 176.768L145.145 175.882L146.033 174.583L147.6 174.741L149.116 174.315L150.217 175.44L151.654 176.087L151.77 177.654L152.454 179.072L151.535 180.348L151.144 181.872ZM145.662 178.746C145.662 177.448 146.713 176.397 148.014 176.397C149.312 176.397 150.366 177.448 150.366 178.746C150.366 180.042 149.312 181.095 148.014 181.095C146.713 181.095 145.662 180.042 145.662 178.746Z"
        fill="#904B12"
      />
      <path
        fill-rule="evenodd"
        clip-rule="evenodd"
        d="M81.0527 111.134L74.495 100.114L84.3322 106.484L87.9542 95.4637L90.3718 106.312L101.069 98.2194L94.5129 110.616L108.489 114.405L94.5129 116.299L100.379 127.837L91.4075 120.604L87.7825 134.552L85.023 121.292L75.1863 128.696L81.5707 116.644L67.7651 112.856L81.0527 111.134ZM78.4643 104.246L85.3664 108.895L87.7825 100.114L89.5094 108.895L97.7925 102.181L91.9245 111.651L102.967 113.888L91.7514 115.437L96.4114 123.014L90.544 117.849L87.9542 129.385L86.0571 118.193L78.9819 124.048L83.642 116.127L73.4609 113.199L83.642 111.823L78.4643 104.246Z"
        fill="#231F20"
      />
      <path
        fill-rule="evenodd"
        clip-rule="evenodd"
        d="M114.918 1.32931L115.993 4.95911e-05L118.158 0.369316L120.562 0.240047L122.492 1.56979C122.492 1.56979 131.168 0.369312 149.36 6.73997C149.36 6.73997 162 9.73265 171.399 5.41022C171.399 5.41022 172.362 21.034 156.706 19.113C156.706 19.113 144.787 17.5438 136.109 12.9819C136.109 12.9819 128.028 9.62144 122.492 11.3019C122.492 11.3019 131.298 12.7419 141.05 17.9131C141.05 17.9131 153.58 23.933 162.85 20.2023C162.85 20.2023 160.316 33.5358 138.515 24.2842C138.515 24.2842 125.746 15.0311 117.918 16.7121C117.918 16.7121 125.986 16.6014 139.478 26.573C139.478 26.573 147.676 30.8944 156.706 29.6949C156.706 29.6949 157.428 35.5856 143.937 35.3451C143.937 35.3451 146.583 37.5065 152.727 37.0261C152.727 37.0261 145.99 46.8874 129.724 33.6646C129.724 33.6646 118.369 24.893 113.323 26.094C113.323 26.094 119.49 28.2549 128.039 36.5466C128.039 36.5466 133.55 41.9808 145.356 41.9808C145.134 42.2547 145.388 42.645 144.235 43.7784C143.988 44.0207 143.727 44.235 143.16 44.5227C142.005 45.109 139.946 45.2404 138.691 44.9734C133.563 43.8816 134.387 43.7655 132.227 42.7622C126.488 40.0967 125.737 38.8853 117.739 33.8559C115.215 32.2686 113.108 30.279 111.464 29.6841C110.573 29.3613 110.149 30.0876 109.66 29.5254C109.013 28.7831 110.062 27.0522 110.814 26.1904C111.078 25.8875 111.434 25.5746 111.651 25.2031C113.071 22.7796 113.275 19.7492 114.956 15.3094C115.885 12.8582 115.645 10.2485 115.938 5.90757C116.068 3.98384 115.837 3.53598 114.918 1.32931ZM116.96 24.3955C116.96 24.3955 124.343 24.9922 132.125 31.9611C132.125 31.9611 139.109 38.1338 146.09 38.5307C146.09 38.5307 137.313 38.7316 130.327 32.5588C126.895 29.031 122.438 26.3104 116.96 24.3955ZM116.163 21.2109C116.163 21.2109 126.736 21.2109 135.518 31.1644C128.493 26.37 122.041 23.0527 116.163 21.2109ZM117.56 19.4182C117.56 19.4182 124.94 17.8249 139.109 29.1728C139.109 29.1728 144.695 33.5534 151.279 33.1556C151.279 33.1556 141.9 34.9478 135.518 28.1783C130.3 23.5096 124.314 20.5906 117.56 19.4182ZM122.492 14.2405C122.492 14.2405 128.733 14.4399 141.303 21.6087C141.303 21.6087 144.695 25.7883 157.264 24.5949C157.264 24.5949 152.676 28.5751 139.308 22.4049C139.308 22.4049 129.02 15.436 122.492 15.0376V14.2405ZM122.011 7.79467C122.011 7.79467 128.74 5.787 142.89 12.3881C142.89 12.3881 157.386 19.1581 168.429 13.7064C168.429 13.7064 160.089 22.5446 142.66 13.5911C142.66 13.5911 135.165 8.8278 122.492 8.59833L122.011 7.79467ZM117.52 2.55985H120.233V13.7881H117.52V2.55985Z"
        fill="#CB0006"
      />
      <path
        d="M100.896 30.1447L104.511 36.558H97.282L100.896 30.1447Z"
        fill="white"
      />
      <path
        d="M97.2626 42.3198C97.8817 43.339 99.9834 43.2592 101.481 43.061C102.838 42.8383 104.28 42.4562 105.754 41.2197L111.091 53.5277L93.6465 53.8644L97.4075 41.886L97.6007 41.2111"
        stroke="#CB0006"
        stroke-width="3.99592"
      />
      <path
        d="M63.6197 12.5552C69.5841 8.97999 73.3948 7.30663 75.6937 8.31335L75.7982 16.4109L76.3071 18.431L76.3698 19.882C75.88 19.9296 75.3311 21.0779 74.8229 21.115C69.0865 21.5342 62.4312 20.537 59.3696 28.4621C59.6574 27.513 56.1042 24.2101 58.0009 19.201C58.7775 17.1502 60.1292 15.198 63.6197 12.5552Z"
        fill="#CB0006"
      />
      <path
        d="M73.4722 8.1206C75.288 7.85976 77.1743 7.49923 79.0423 7.06211C83.7066 5.97064 88.257 4.4017 91.3134 2.71503C91.6783 3.12878 91.1504 5.19326 91.6639 5.04597C93.3338 4.56706 94.9647 7.55637 92.5691 8.78959L90.6315 9.28589L85.7154 9.4372C85.686 11.9682 85.7693 12.257 84.9008 12.7433C83.6011 13.4708 80.4014 13.5609 79.1426 13.3911C78.5907 13.3167 79.2163 11.4912 78.7829 8.89184H75.7904L73.4722 8.1206Z"
        fill="#CB0006"
      />
      <path
        d="M86.0227 4.63082L88.3108 3.64429L88.3449 9.91586H86.0227V4.63082Z"
        fill="#066AB2"
      />
      <path
        d="M93.5632 0.504554L96.4795 0.508162L97.1854 1.22749V10.145H93.5632C93.896 9.19948 93.9917 8.27097 94.0496 7.32542C94.1087 6.3579 93.3825 4.94592 92.3554 4.68093C92.072 4.60779 91.6728 4.8716 91.6778 4.61036C91.6932 3.80534 91.695 3.30034 91.7012 2.8605C91.7071 2.44032 91.7171 2.07961 91.747 1.57362C91.7639 1.28685 91.7256 0.911787 92.1059 0.721867C92.5755 0.487258 93.4862 0.47243 93.5632 0.504456L93.5632 0.504554H93.5632Z"
        fill="#F1BF00"
      />
      <path
        d="M112.315 237.934C116.164 245.892 120.396 254.061 126.468 257.969C133.102 262.241 143.952 262.838 149.158 262.664C134.818 276.269 90.0063 275.987 74.7007 262.086C87.3739 262.637 103.16 262.961 112.315 237.934Z"
        fill="white"
      />
    </svg>
