<svg width="354" height="69" viewBox="0 0 354 69" fill="none" xmlns="http://www.w3.org/2000/svg">
<g filter="url(#filter0_d_569_4885)">
<rect width="354" height="68.601" rx="8" fill="#CE1126" shape-rendering="crispEdges"/>
<path d="M55.9807 47.1801C56.078 45.8902 55.8066 44.5993 55.1982 43.4579C54.4258 42.3524 53.2829 41.5603 51.9766 41.2253L46.3884 39.3306V37.6488L46.1387 37.9C45.8065 38.2282 45.4044 38.4768 44.9624 38.6274V39.4842L42.5 41.3165L40.0376 39.4903V38.6335C39.5956 38.4829 39.1936 38.2343 38.8613 37.9061L38.6116 37.6488V39.3306L33.0234 41.2253C31.7167 41.5596 30.5735 42.3517 29.8017 43.4579C29.1933 44.5993 28.922 45.8902 29.0193 47.1801V51.8874C29.0198 52.0769 29.0953 52.2586 29.2295 52.3926C29.3628 52.5263 29.5442 52.6015 29.7332 52.601H55.2729C55.462 52.6015 55.6434 52.5263 55.7766 52.3926C55.9109 52.2586 55.9863 52.0769 55.9868 51.8874L55.9807 47.1801ZM45.8008 40.6364L47.8081 41.3166L46.7429 44.4501L45.4127 43.4685L43.7052 42.2084L45.8008 40.6364ZM42.4999 43.0926L44.0324 44.2248L43.1695 45.5048H41.8304L40.9675 44.2248L42.4999 43.0926ZM39.1975 40.6379L41.3007 42.204L38.2569 44.4519L37.1917 41.3184L39.1975 40.6379ZM39.2279 51.1752H30.4405V47.1803C30.4405 44.657 30.8621 43.4609 33.4751 42.5768L35.8355 41.7763L37.2052 45.8351C37.2755 46.0517 37.4452 46.2213 37.6617 46.2917C37.7305 46.3141 37.8024 46.3253 37.8747 46.325C38.0271 46.3248 38.1754 46.2759 38.2979 46.1852L39.7985 45.0787L40.6523 46.3434L39.2279 51.1752ZM40.7162 51.1752L41.9825 46.9324H43.0189L44.2821 51.1769L40.7162 51.1752ZM45.7687 51.1752L44.3262 46.3373L45.1783 45.0725L46.6774 46.179C46.7997 46.2697 46.948 46.3189 47.1003 46.3189C47.1727 46.3191 47.2448 46.3079 47.3136 46.2855C47.5301 46.2152 47.6998 46.0455 47.7701 45.829L49.149 41.7702L51.5095 42.5707C54.1209 43.455 54.5426 44.6511 54.5426 47.1757V51.169L45.7687 51.1752Z" fill="white"/>
<path d="M33.877 44.1075L32.6276 44.7709V44.7712C32.4551 44.8568 32.3244 45.0086 32.2656 45.1921C32.2067 45.3755 32.2245 45.575 32.3147 45.7452C32.4052 45.9154 32.5606 46.0418 32.7456 46.0955C32.9308 46.1495 33.1295 46.1263 33.2972 46.0311L34.5465 45.3676C34.7193 45.282 34.8497 45.1302 34.9086 44.9465C34.9677 44.763 34.9499 44.5635 34.8594 44.3934C34.769 44.2234 34.6136 44.097 34.4286 44.043C34.2436 43.9893 34.0446 44.0125 33.877 44.1075V44.1075Z" fill="white"/>
<path d="M52.3721 44.7715L51.1211 44.108V44.1078C50.7759 43.9429 50.3621 44.0795 50.1828 44.4176C50.0037 44.7554 50.1229 45.1747 50.4531 45.3679L51.7025 46.0313C52.0487 46.2035 52.4689 46.0685 52.6502 45.7271C52.8316 45.3857 52.7083 44.962 52.372 44.7715H52.3721Z" fill="white"/>
<path d="M40.0378 38.6275C40.3693 38.7483 40.7186 38.8115 41.0712 38.8148H43.9293C44.7547 38.8005 45.5443 38.4742 46.1389 37.9017L46.3886 37.6505L48.5193 35.5198V35.5201C49.3126 34.7272 49.8968 33.7499 50.2191 32.6755C51.0392 32.5741 51.7852 32.1497 52.2914 31.4967C52.7976 30.8434 53.0226 30.0152 52.9166 29.1956C52.8104 28.376 52.3816 27.6325 51.7255 27.1301V25.1029L55.3902 22.9024C55.4139 22.8884 55.4287 22.8629 55.4287 22.8354C55.4287 22.8079 55.4139 22.7824 55.3902 22.7684L54.392 22.2785C52.7395 21.3088 51.366 19.9285 50.4045 18.2714L50.2264 17.9669H50.2267C50.2127 17.9442 50.188 17.9302 50.1612 17.9305H49.8173C47.3939 17.8951 45.0112 17.3032 42.8535 16.2001L42.5399 16.0113C42.5157 15.9962 42.4851 15.9962 42.4609 16.0113L42.1473 16.2001C39.9893 17.3038 37.6067 17.8961 35.1835 17.932H34.838C34.8115 17.9323 34.787 17.946 34.7725 17.9685L34.596 18.2637H34.5962C33.6347 19.9229 32.2612 21.3055 30.6087 22.2785L29.6149 22.7761H29.6151C29.5914 22.7901 29.5767 22.8156 29.5767 22.8431C29.5767 22.8706 29.5914 22.8961 29.6151 22.9101L33.2783 25.1029V27.1317C32.6212 27.6336 32.1917 28.3773 32.0852 29.1971C31.9784 30.0172 32.2036 30.8457 32.7104 31.4993C33.2174 32.1525 33.9641 32.5767 34.7848 32.6771C35.1076 33.7505 35.6917 34.7268 36.4846 35.5186L38.6153 37.6493L38.8649 37.9005V37.9002C39.1962 38.2279 39.5974 38.4765 40.0382 38.6276L40.0378 38.6275ZM35.8679 27.3656V27.3659C40.2335 26.3755 44.7655 26.3755 49.1309 27.3659V30.7261C49.1347 32.1621 48.5635 33.5399 47.5452 34.5521L45.1682 36.9291H45.1679C44.8382 37.257 44.3926 37.4419 43.9276 37.4435H41.0711C40.6061 37.4419 40.1605 37.257 39.8308 36.9291L37.4535 34.5521C36.4355 33.5396 35.8645 32.162 35.8679 30.7261L35.8679 27.3656ZM34.4983 27.9911V30.7304C34.4983 30.8825 34.4983 31.0349 34.5181 31.2099C34.0896 31.0361 33.7479 30.6993 33.5681 30.2734C33.3885 29.8474 33.3854 29.3676 33.5599 28.9394C33.7345 28.5114 34.072 28.1702 34.4983 27.9914L34.4983 27.9911ZM34.6504 25.2304L34.6506 25.2306C35.8583 24.9002 37.0865 24.6497 38.3272 24.4803C38.3479 24.4772 38.3665 24.466 38.3785 24.4492C38.3907 24.4321 38.3953 24.411 38.3912 24.3906L38.2223 23.1914C38.2205 23.1707 38.2101 23.1519 38.1932 23.1397C38.1774 23.1272 38.1568 23.1221 38.1369 23.1259C36.7574 23.3111 35.3928 23.596 34.0539 23.9781L32.2277 22.8792C33.5589 21.9073 34.6946 20.693 35.5757 19.2999C37.9792 19.2186 40.3386 18.6316 42.5003 17.5771C44.6636 18.6299 47.0248 19.2143 49.4295 19.2923C50.3095 20.6856 51.4455 21.8997 52.7775 22.87L50.9436 23.9689C49.6048 23.5875 48.2402 23.3026 46.8606 23.1167C46.8407 23.1144 46.8209 23.1192 46.8043 23.1305C46.788 23.1432 46.7778 23.1618 46.7753 23.1822L46.6063 24.389C46.6038 24.4089 46.6091 24.4293 46.6216 24.4454C46.6339 24.4614 46.6519 24.4716 46.6718 24.4741C47.9125 24.6431 49.1408 24.8938 50.3485 25.2245V26.2349C47.9322 25.6132 45.4504 25.2813 42.9555 25.2459L43.8962 24.7771C44.4164 24.519 44.8539 24.1203 45.1593 23.626C45.4645 23.132 45.6253 22.5623 45.6233 21.9814V19.9695C45.6235 19.9346 45.5996 19.9043 45.5654 19.8964L42.5216 19.1353L42.5219 19.1356C42.5099 19.1325 42.4972 19.1325 42.4852 19.1356L39.4414 19.8966L39.4417 19.8964C39.4078 19.9045 39.3843 19.9348 39.3854 19.9695V21.9875C39.3831 22.5684 39.5436 23.1384 39.8488 23.6324C40.1543 24.1266 40.592 24.5253 41.1125 24.7832L42.0531 25.2535C39.555 25.2861 37.0695 25.6155 34.6491 26.2349L34.6504 25.2304ZM50.502 30.7261V27.9868C50.9285 28.1651 51.2663 28.5058 51.4413 28.9338C51.6161 29.3618 51.6133 29.8416 51.4336 30.2675C51.254 30.6935 50.9121 31.0303 50.4836 31.2038C50.4958 31.0379 50.502 30.8813 50.502 30.7261L50.502 30.7261ZM40.7467 20.9865L42.4998 20.5434L44.2529 20.9816V21.9878C44.2542 22.3134 44.1637 22.6331 43.9925 22.9101C43.821 23.1873 43.5754 23.4107 43.2835 23.5551L42.4998 23.9523L41.7146 23.5597C41.4228 23.415 41.1777 23.1913 41.0068 22.9141C40.8356 22.6372 40.7456 22.318 40.7466 21.9924L40.7467 20.9865Z" fill="white"/>
<path d="M89.4048 30.9383C89.348 30.3654 89.1042 29.9203 88.6733 29.6031C88.2424 29.2859 87.6577 29.1272 86.919 29.1272C86.4171 29.1272 85.9934 29.1983 85.6477 29.3403C85.3021 29.4776 85.0369 29.6694 84.8523 29.9156C84.6723 30.1618 84.5824 30.4412 84.5824 30.7537C84.5729 31.0141 84.6274 31.2414 84.7457 31.4355C84.8688 31.6296 85.0369 31.7977 85.25 31.9397C85.4631 32.0771 85.7093 32.1978 85.9886 32.302C86.268 32.4014 86.5663 32.4866 86.8835 32.5576L88.1903 32.8701C88.8248 33.0122 89.4072 33.2016 89.9375 33.4383C90.4678 33.6751 90.9271 33.9663 91.3153 34.3119C91.7036 34.6575 92.0043 35.0647 92.2173 35.5335C92.4351 36.0022 92.5464 36.5396 92.5511 37.1457C92.5464 38.0359 92.3191 38.8076 91.8693 39.461C91.4242 40.1097 90.7803 40.614 89.9375 40.9738C89.0994 41.3289 88.0885 41.5065 86.9048 41.5065C85.7306 41.5065 84.7079 41.3266 83.8366 40.9667C82.9702 40.6069 82.2931 40.0742 81.8054 39.3687C81.3224 38.6585 81.0691 37.7802 81.0455 36.7338H84.0213C84.0545 37.2215 84.1941 37.6287 84.4403 37.9554C84.6913 38.2773 85.0251 38.5212 85.4418 38.6869C85.8632 38.8479 86.339 38.9284 86.8693 38.9284C87.3902 38.9284 87.8423 38.8526 88.2259 38.7011C88.6141 38.5496 88.9148 38.3389 89.1278 38.069C89.3409 37.7991 89.4474 37.489 89.4474 37.1386C89.4474 36.8119 89.3504 36.5373 89.1562 36.3147C88.9669 36.0922 88.6875 35.9028 88.3182 35.7466C87.9536 35.5903 87.5062 35.4483 86.9759 35.3204L85.392 34.9227C84.1657 34.6244 83.1974 34.158 82.4872 33.5235C81.777 32.8891 81.4242 32.0344 81.429 30.9596C81.4242 30.0789 81.6586 29.3095 82.1321 28.6514C82.6103 27.9932 83.2661 27.4795 84.0994 27.1102C84.9328 26.7409 85.8797 26.5562 86.9403 26.5562C88.0199 26.5562 88.9621 26.7409 89.767 27.1102C90.5767 27.4795 91.2064 27.9932 91.6562 28.6514C92.1061 29.3095 92.3381 30.0718 92.3523 30.9383H89.4048ZM99.5344 41.5136C98.4123 41.5136 97.4464 41.2863 96.6367 40.8318C95.8318 40.3725 95.2115 39.7238 94.7759 38.8858C94.3403 38.043 94.1225 37.0463 94.1225 35.8957C94.1225 34.7735 94.3403 33.7887 94.7759 32.9412C95.2115 32.0936 95.8247 31.4331 96.6154 30.9596C97.4109 30.4861 98.3436 30.2494 99.4137 30.2494C100.133 30.2494 100.803 30.3654 101.424 30.5974C102.049 30.8247 102.593 31.168 103.057 31.6272C103.526 32.0865 103.891 32.6642 104.151 33.3602C104.411 34.0515 104.542 34.8611 104.542 35.7892V36.6201H95.3299V34.7451H101.694C101.694 34.3095 101.599 33.9236 101.409 33.5875C101.22 33.2513 100.957 32.9885 100.621 32.7991C100.29 32.605 99.9038 32.5079 99.4634 32.5079C99.0041 32.5079 98.5969 32.6145 98.2418 32.8275C97.8915 33.0359 97.6168 33.3176 97.418 33.6727C97.2191 34.0231 97.1173 34.4137 97.1126 34.8446V36.6272C97.1126 37.167 97.212 37.6334 97.4109 38.0264C97.6145 38.4194 97.9009 38.7224 98.2702 38.9355C98.6396 39.1485 99.0775 39.2551 99.5842 39.2551C99.9203 39.2551 100.228 39.2077 100.507 39.113C100.787 39.0183 101.026 38.8763 101.225 38.6869C101.424 38.4975 101.575 38.2655 101.679 37.9909L104.478 38.1755C104.336 38.8479 104.044 39.435 103.604 39.9369C103.168 40.4341 102.605 40.8223 101.914 41.1017C101.227 41.3763 100.434 41.5136 99.5344 41.5136ZM111.431 45.6187C110.451 45.6187 109.61 45.4838 108.909 45.2139C108.213 44.9487 107.659 44.5865 107.248 44.1272C106.836 43.668 106.568 43.1519 106.445 42.5789L109.243 42.2025C109.328 42.4203 109.463 42.6239 109.648 42.8133C109.833 43.0027 110.077 43.1542 110.38 43.2679C110.687 43.3862 111.061 43.4454 111.502 43.4454C112.16 43.4454 112.702 43.2844 113.128 42.9625C113.559 42.6452 113.775 42.1126 113.775 41.3645V39.3687H113.647C113.514 39.6717 113.315 39.9582 113.05 40.2281C112.785 40.498 112.444 40.7182 112.027 40.8886C111.611 41.0591 111.114 41.1443 110.536 41.1443C109.717 41.1443 108.971 40.9549 108.299 40.5761C107.631 40.1926 107.098 39.6078 106.701 38.8218C106.308 38.0311 106.111 37.0321 106.111 35.8247C106.111 34.5889 106.312 33.5567 106.715 32.7281C107.117 31.8995 107.652 31.2792 108.32 30.8673C108.992 30.4554 109.729 30.2494 110.529 30.2494C111.14 30.2494 111.651 30.3536 112.063 30.5619C112.475 30.7655 112.806 31.0212 113.057 31.3289C113.313 31.632 113.509 31.9303 113.647 32.2238H113.76V30.3914H116.765V41.4071C116.765 42.3351 116.537 43.1116 116.083 43.7366C115.628 44.3616 114.998 44.8304 114.194 45.1429C113.393 45.4601 112.472 45.6187 111.431 45.6187ZM111.495 38.8716C111.982 38.8716 112.394 38.7508 112.73 38.5093C113.071 38.2631 113.332 37.9128 113.512 37.4582C113.696 36.9989 113.789 36.4497 113.789 35.8105C113.789 35.1713 113.699 34.6173 113.519 34.1485C113.339 33.6751 113.078 33.3081 112.738 33.0477C112.397 32.7873 111.982 32.6571 111.495 32.6571C110.998 32.6571 110.578 32.792 110.238 33.0619C109.897 33.3271 109.639 33.6964 109.463 34.1699C109.288 34.6433 109.201 35.1902 109.201 35.8105C109.201 36.4402 109.288 36.9847 109.463 37.444C109.643 37.8985 109.901 38.2513 110.238 38.5022C110.578 38.7485 110.998 38.8716 111.495 38.8716ZM126.168 36.6557V30.3914H129.194V41.3005H126.289V39.319H126.175C125.929 39.9582 125.519 40.4719 124.946 40.8602C124.378 41.2485 123.685 41.4426 122.865 41.4426C122.136 41.4426 121.495 41.2769 120.941 40.9454C120.387 40.614 119.953 40.1429 119.641 39.5321C119.333 38.9213 119.177 38.1897 119.172 37.3375V30.3914H122.198V36.7977C122.203 37.4416 122.375 37.9506 122.716 38.3247C123.057 38.6987 123.514 38.8858 124.087 38.8858C124.452 38.8858 124.792 38.8029 125.11 38.6372C125.427 38.4667 125.683 38.2158 125.877 37.8843C126.076 37.5529 126.173 37.1433 126.168 36.6557ZM131.614 41.3005V30.3914H134.547V32.2949H134.661C134.859 31.6178 135.193 31.1064 135.662 30.7608C136.131 30.4104 136.67 30.2352 137.281 30.2352C137.433 30.2352 137.596 30.2447 137.771 30.2636C137.946 30.2825 138.1 30.3086 138.233 30.3417V33.0264C138.091 32.9838 137.894 32.9459 137.643 32.9128C137.393 32.8796 137.163 32.863 136.955 32.863C136.509 32.863 136.112 32.9601 135.761 33.1542C135.416 33.3436 135.141 33.6088 134.938 33.9497C134.739 34.2906 134.639 34.6836 134.639 35.1287V41.3005H131.614ZM139.797 41.3005V30.3914H142.823V41.3005H139.797ZM141.317 28.9852C140.867 28.9852 140.481 28.836 140.159 28.5378C139.842 28.2347 139.684 27.8725 139.684 27.4511C139.684 27.0344 139.842 26.677 140.159 26.3787C140.481 26.0756 140.867 25.9241 141.317 25.9241C141.767 25.9241 142.15 26.0756 142.468 26.3787C142.79 26.677 142.951 27.0344 142.951 27.4511C142.951 27.8725 142.79 28.2347 142.468 28.5378C142.15 28.836 141.767 28.9852 141.317 28.9852ZM149.266 41.4781C148.438 41.4781 147.687 41.265 147.015 40.8389C146.347 40.408 145.817 39.7759 145.424 38.9426C145.036 38.1045 144.842 37.0771 144.842 35.8602C144.842 34.6102 145.043 33.5709 145.445 32.7423C145.848 31.909 146.383 31.2863 147.05 30.8744C147.723 30.4577 148.459 30.2494 149.259 30.2494C149.87 30.2494 150.379 30.3536 150.786 30.5619C151.198 30.7655 151.53 31.0212 151.781 31.3289C152.036 31.632 152.23 31.9303 152.363 32.2238H152.455V26.7551H155.474V41.3005H152.491V39.5534H152.363C152.221 39.8564 152.02 40.1571 151.759 40.4554C151.504 40.7489 151.17 40.9928 150.758 41.1869C150.351 41.381 149.853 41.4781 149.266 41.4781ZM150.225 39.0704C150.713 39.0704 151.125 38.9378 151.461 38.6727C151.802 38.4028 152.062 38.0264 152.242 37.5434C152.427 37.0605 152.519 36.4947 152.519 35.846C152.519 35.1973 152.429 34.6339 152.249 34.1557C152.069 33.6774 151.809 33.3081 151.468 33.0477C151.127 32.7873 150.713 32.6571 150.225 32.6571C149.728 32.6571 149.309 32.792 148.968 33.0619C148.627 33.3318 148.369 33.7058 148.194 34.1841C148.019 34.6623 147.931 35.2163 147.931 35.846C147.931 36.4805 148.019 37.0415 148.194 37.5292C148.374 38.0122 148.632 38.391 148.968 38.6656C149.309 38.9355 149.728 39.0704 150.225 39.0704ZM161.072 41.5065C160.376 41.5065 159.756 41.3858 159.211 41.1443C158.667 40.8981 158.236 40.5359 157.919 40.0576C157.606 39.5747 157.45 38.9734 157.45 38.2537C157.45 37.6476 157.561 37.1386 157.784 36.7267C158.006 36.3147 158.309 35.9833 158.693 35.7324C159.076 35.4814 159.512 35.292 160 35.1642C160.492 35.0363 161.008 34.9464 161.548 34.8943C162.182 34.828 162.694 34.7664 163.082 34.7096C163.47 34.6481 163.752 34.5581 163.927 34.4397C164.102 34.3214 164.19 34.1462 164.19 33.9142V33.8716C164.19 33.4217 164.048 33.0737 163.764 32.8275C163.484 32.5813 163.087 32.4582 162.571 32.4582C162.026 32.4582 161.593 32.5789 161.271 32.8204C160.949 33.0572 160.736 33.3555 160.632 33.7153L157.833 33.488C157.975 32.8252 158.255 32.2522 158.672 31.7693C159.088 31.2816 159.626 30.9075 160.284 30.6471C160.947 30.382 161.714 30.2494 162.585 30.2494C163.191 30.2494 163.771 30.3204 164.325 30.4625C164.884 30.6045 165.378 30.8247 165.809 31.123C166.245 31.4213 166.588 31.8048 166.839 32.2735C167.09 32.7376 167.216 33.2939 167.216 33.9426V41.3005H164.346V39.7878H164.261C164.086 40.1287 163.851 40.4293 163.558 40.6897C163.264 40.9454 162.912 41.1467 162.5 41.2934C162.088 41.4355 161.612 41.5065 161.072 41.5065ZM161.939 39.4184C162.384 39.4184 162.777 39.3308 163.118 39.1557C163.458 38.9757 163.726 38.7342 163.92 38.4312C164.114 38.1282 164.211 37.7849 164.211 37.4014V36.2437C164.117 36.3053 163.986 36.3621 163.821 36.4142C163.66 36.4615 163.477 36.5065 163.274 36.5491C163.07 36.587 162.867 36.6225 162.663 36.6557C162.459 36.6841 162.275 36.7101 162.109 36.7338C161.754 36.7859 161.444 36.8687 161.179 36.9824C160.913 37.096 160.708 37.2499 160.561 37.444C160.414 37.6334 160.341 37.8701 160.341 38.1542C160.341 38.5662 160.49 38.881 160.788 39.0988C161.091 39.3119 161.475 39.4184 161.939 39.4184ZM173.583 41.4781C172.754 41.4781 172.004 41.265 171.331 40.8389C170.664 40.408 170.133 39.7759 169.74 38.9426C169.352 38.1045 169.158 37.0771 169.158 35.8602C169.158 34.6102 169.359 33.5709 169.762 32.7423C170.164 31.909 170.699 31.2863 171.367 30.8744C172.039 30.4577 172.775 30.2494 173.576 30.2494C174.186 30.2494 174.695 30.3536 175.103 30.5619C175.515 30.7655 175.846 31.0212 176.097 31.3289C176.353 31.632 176.547 31.9303 176.679 32.2238H176.772V26.7551H179.79V41.3005H176.807V39.5534H176.679C176.537 39.8564 176.336 40.1571 176.076 40.4554C175.82 40.7489 175.486 40.9928 175.074 41.1869C174.667 41.381 174.17 41.4781 173.583 41.4781ZM174.542 39.0704C175.029 39.0704 175.441 38.9378 175.777 38.6727C176.118 38.4028 176.379 38.0264 176.559 37.5434C176.743 37.0605 176.836 36.4947 176.836 35.846C176.836 35.1973 176.746 34.6339 176.566 34.1557C176.386 33.6774 176.125 33.3081 175.784 33.0477C175.444 32.7873 175.029 32.6571 174.542 32.6571C174.044 32.6571 173.625 32.792 173.284 33.0619C172.944 33.3318 172.685 33.7058 172.51 34.1841C172.335 34.6623 172.248 35.2163 172.248 35.846C172.248 36.4805 172.335 37.0415 172.51 37.5292C172.69 38.0122 172.948 38.391 173.284 38.6656C173.625 38.9355 174.044 39.0704 174.542 39.0704ZM186.907 45.3914V30.3914H189.89V32.2238H190.025C190.157 31.9303 190.349 31.632 190.6 31.3289C190.855 31.0212 191.187 30.7655 191.594 30.5619C192.006 30.3536 192.517 30.2494 193.128 30.2494C193.924 30.2494 194.658 30.4577 195.33 30.8744C196.002 31.2863 196.54 31.909 196.942 32.7423C197.345 33.5709 197.546 34.6102 197.546 35.8602C197.546 37.0771 197.349 38.1045 196.956 38.9426C196.568 39.7759 196.038 40.408 195.365 40.8389C194.698 41.265 193.95 41.4781 193.121 41.4781C192.534 41.4781 192.034 41.381 191.623 41.1869C191.215 40.9928 190.882 40.7489 190.621 40.4554C190.361 40.1571 190.162 39.8564 190.025 39.5534H189.932V45.3914H186.907ZM189.868 35.846C189.868 36.4947 189.958 37.0605 190.138 37.5434C190.318 38.0264 190.578 38.4028 190.919 38.6727C191.26 38.9378 191.675 39.0704 192.162 39.0704C192.655 39.0704 193.071 38.9355 193.412 38.6656C193.753 38.391 194.011 38.0122 194.186 37.5292C194.366 37.0415 194.456 36.4805 194.456 35.846C194.456 35.2163 194.369 34.6623 194.194 34.1841C194.018 33.7058 193.76 33.3318 193.419 33.0619C193.078 32.792 192.659 32.6571 192.162 32.6571C191.67 32.6571 191.253 32.7873 190.912 33.0477C190.576 33.3081 190.318 33.6774 190.138 34.1557C189.958 34.6339 189.868 35.1973 189.868 35.846ZM206.559 36.6557V30.3914H209.584V41.3005H206.679V39.319H206.566C206.319 39.9582 205.91 40.4719 205.337 40.8602C204.769 41.2485 204.075 41.4426 203.256 41.4426C202.527 41.4426 201.885 41.2769 201.331 40.9454C200.777 40.614 200.344 40.1429 200.032 39.5321C199.724 38.9213 199.568 38.1897 199.563 37.3375V30.3914H202.588V36.7977C202.593 37.4416 202.766 37.9506 203.107 38.3247C203.448 38.6987 203.905 38.8858 204.478 38.8858C204.842 38.8858 205.183 38.8029 205.5 38.6372C205.818 38.4667 206.073 38.2158 206.267 37.8843C206.466 37.5529 206.563 37.1433 206.559 36.6557ZM203.498 28.9852L205.003 25.7537H207.801L205.635 28.9852H203.498ZM212.061 41.3005V26.7551H215.087V32.2238H215.179C215.312 31.9303 215.503 31.632 215.754 31.3289C216.01 31.0212 216.341 30.7655 216.749 30.5619C217.161 30.3536 217.672 30.2494 218.283 30.2494C219.078 30.2494 219.812 30.4577 220.484 30.8744C221.157 31.2863 221.694 31.909 222.097 32.7423C222.499 33.5709 222.7 34.6102 222.7 35.8602C222.7 37.0771 222.504 38.1045 222.111 38.9426C221.723 39.7759 221.192 40.408 220.52 40.8389C219.852 41.265 219.104 41.4781 218.276 41.4781C217.688 41.4781 217.189 41.381 216.777 41.1869C216.37 40.9928 216.036 40.7489 215.776 40.4554C215.515 40.1571 215.316 39.8564 215.179 39.5534H215.044V41.3005H212.061ZM215.023 35.846C215.023 36.4947 215.113 37.0605 215.293 37.5434C215.473 38.0264 215.733 38.4028 216.074 38.6727C216.415 38.9378 216.829 39.0704 217.317 39.0704C217.809 39.0704 218.226 38.9355 218.567 38.6656C218.908 38.391 219.166 38.0122 219.341 37.5292C219.521 37.0415 219.611 36.4805 219.611 35.846C219.611 35.2163 219.523 34.6623 219.348 34.1841C219.173 33.7058 218.915 33.3318 218.574 33.0619C218.233 32.792 217.814 32.6571 217.317 32.6571C216.824 32.6571 216.408 32.7873 216.067 33.0477C215.731 33.3081 215.473 33.6774 215.293 34.1557C215.113 34.6339 215.023 35.1973 215.023 35.846ZM227.745 26.7551V41.3005H224.719V26.7551H227.745ZM230.168 41.3005V30.3914H233.194V41.3005H230.168ZM231.688 28.9852C231.238 28.9852 230.853 28.836 230.531 28.5378C230.213 28.2347 230.055 27.8725 230.055 27.4511C230.055 27.0344 230.213 26.677 230.531 26.3787C230.853 26.0756 231.238 25.9241 231.688 25.9241C232.138 25.9241 232.522 26.0756 232.839 26.3787C233.161 26.677 233.322 27.0344 233.322 27.4511C233.322 27.8725 233.161 28.2347 232.839 28.5378C232.522 28.836 232.138 28.9852 231.688 28.9852ZM240.547 41.5136C239.429 41.5136 238.468 41.2769 237.663 40.8034C236.863 40.3252 236.247 39.6623 235.816 38.8147C235.39 37.9672 235.177 36.9918 235.177 35.8886C235.177 34.7712 235.393 33.7911 235.824 32.9483C236.259 32.1007 236.877 31.4402 237.677 30.9667C238.477 30.4885 239.429 30.2494 240.532 30.2494C241.484 30.2494 242.317 30.4222 243.032 30.7679C243.747 31.1135 244.313 31.5988 244.73 32.2238C245.146 32.8488 245.376 33.5827 245.419 34.4255H242.564C242.483 33.881 242.27 33.4431 241.924 33.1116C241.583 32.7754 241.136 32.6074 240.582 32.6074C240.113 32.6074 239.704 32.7352 239.353 32.9909C239.008 33.2418 238.738 33.6088 238.544 34.0917C238.35 34.5747 238.252 35.1594 238.252 35.846C238.252 36.542 238.347 37.1339 238.537 37.6216C238.731 38.1092 239.003 38.4809 239.353 38.7366C239.704 38.9923 240.113 39.1201 240.582 39.1201C240.928 39.1201 241.238 39.0491 241.512 38.9071C241.792 38.765 242.021 38.5591 242.201 38.2892C242.386 38.0146 242.507 37.6855 242.564 37.302H245.419C245.371 38.1353 245.144 38.8692 244.737 39.5037C244.334 40.1334 243.778 40.6258 243.068 40.9809C242.358 41.336 241.517 41.5136 240.547 41.5136ZM250.467 41.5065C249.771 41.5065 249.15 41.3858 248.606 41.1443C248.061 40.8981 247.63 40.5359 247.313 40.0576C247.001 39.5747 246.844 38.9734 246.844 38.2537C246.844 37.6476 246.956 37.1386 247.178 36.7267C247.401 36.3147 247.704 35.9833 248.087 35.7324C248.471 35.4814 248.906 35.292 249.394 35.1642C249.887 35.0363 250.403 34.9464 250.942 34.8943C251.577 34.828 252.088 34.7664 252.477 34.7096C252.865 34.6481 253.147 34.5581 253.322 34.4397C253.497 34.3214 253.585 34.1462 253.585 33.9142V33.8716C253.585 33.4217 253.442 33.0737 253.158 32.8275C252.879 32.5813 252.481 32.4582 251.965 32.4582C251.421 32.4582 250.987 32.5789 250.665 32.8204C250.344 33.0572 250.13 33.3555 250.026 33.7153L247.228 33.488C247.37 32.8252 247.649 32.2522 248.066 31.7693C248.483 31.2816 249.02 30.9075 249.678 30.6471C250.341 30.382 251.108 30.2494 251.979 30.2494C252.585 30.2494 253.165 30.3204 253.719 30.4625C254.278 30.6045 254.773 30.8247 255.204 31.123C255.639 31.4213 255.983 31.8048 256.234 32.2735C256.485 32.7376 256.61 33.2939 256.61 33.9426V41.3005H253.741V39.7878H253.656C253.48 40.1287 253.246 40.4293 252.952 40.6897C252.659 40.9454 252.306 41.1467 251.894 41.2934C251.482 41.4355 251.006 41.5065 250.467 41.5065ZM251.333 39.4184C251.778 39.4184 252.171 39.3308 252.512 39.1557C252.853 38.9757 253.121 38.7342 253.315 38.4312C253.509 38.1282 253.606 37.7849 253.606 37.4014V36.2437C253.511 36.3053 253.381 36.3621 253.215 36.4142C253.054 36.4615 252.872 36.5065 252.668 36.5491C252.465 36.587 252.261 36.6225 252.058 36.6557C251.854 36.6841 251.669 36.7101 251.504 36.7338C251.148 36.7859 250.838 36.8687 250.573 36.9824C250.308 37.096 250.102 37.2499 249.955 37.444C249.808 37.6334 249.735 37.8701 249.735 38.1542C249.735 38.5662 249.884 38.881 250.183 39.0988C250.486 39.3119 250.869 39.4184 251.333 39.4184Z" fill="white"/>
<g style="mix-blend-mode:overlay">
<path d="M324.912 34.1225L320.444 24.9853C320.302 24.6953 320.007 24.5117 319.684 24.5123H319.603C316.631 24.3746 313.721 23.6134 311.061 22.2784C308.402 20.943 306.053 19.0634 304.167 16.7616C304.008 16.5532 303.76 16.4308 303.498 16.4308C303.235 16.4308 302.988 16.5532 302.829 16.7616C300.943 19.0627 298.594 20.9418 295.935 22.2762C293.276 23.6109 290.366 24.3715 287.394 24.5086H287.308C286.987 24.5083 286.694 24.6922 286.554 24.9816L282.086 34.1227C281.949 34.4007 281.977 34.7315 282.159 34.9826L286.506 41.0113V45.0533C286.506 46.6783 287.48 48.95 292.119 50.5516C295.802 51.6902 299.643 52.2343 303.497 52.1641C311.956 52.1641 320.489 49.9641 320.489 45.0514V41.0185L324.839 34.9898C325.023 34.7372 325.052 34.4025 324.912 34.1227L324.912 34.1225ZM314.327 48.964C310.822 50.0443 307.166 50.5599 303.499 50.4921C299.831 50.5626 296.175 50.0491 292.668 48.9711C290.879 48.5569 289.326 47.4534 288.345 45.9001H318.65C317.671 47.4537 316.117 48.5575 314.327 48.9711L314.327 48.964ZM318.806 44.2127L288.186 44.2124V41.5787L318.81 41.579L318.806 44.2127ZM319.217 39.9002H287.775L283.814 34.4141L287.834 26.173C290.768 26.0224 293.641 25.2761 296.277 23.9801C299.029 22.7063 301.487 20.8761 303.497 18.6053C305.508 20.8758 307.968 22.7057 310.721 23.9801C313.356 25.2794 316.229 26.0287 319.163 26.182L323.184 34.4231L319.217 39.9002Z" fill="white" fill-opacity="0.3"/>
<path d="M309.321 28.3498L305.797 27.8394L304.215 24.6448C304.064 24.3892 303.79 24.2327 303.493 24.2327C303.196 24.2327 302.922 24.3892 302.771 24.6448L301.194 27.8391L297.676 28.3499C297.371 28.3934 297.119 28.6061 297.023 28.8982C296.928 29.1906 297.008 29.5116 297.228 29.7257L299.779 32.2106L299.177 35.7205C299.125 36.0228 299.249 36.329 299.498 36.5087C299.746 36.6884 300.075 36.7127 300.347 36.5714L303.499 34.9125L306.652 36.5714C306.924 36.7136 307.252 36.6893 307.5 36.5087C307.748 36.3282 307.872 36.0225 307.82 35.7205L307.218 32.2106L309.769 29.7257C309.988 29.5109 310.067 29.1906 309.971 28.899C309.877 28.6072 309.625 28.3945 309.321 28.3499L309.321 28.3498ZM305.788 31.3525C305.598 31.5387 305.512 31.8069 305.557 32.069L305.955 34.3857L303.873 33.2928C303.639 33.1686 303.358 33.1686 303.124 33.2928L301.042 34.3857L301.44 32.069C301.486 31.8063 301.398 31.5381 301.207 31.3525L299.525 29.7112L301.854 29.3726C302.117 29.3333 302.343 29.1662 302.457 28.9266L303.499 26.8231L304.54 28.9266C304.656 29.1647 304.883 29.3297 305.145 29.3672L307.474 29.7058L305.788 31.3525Z" fill="white" fill-opacity="0.3"/>
<path d="M292.129 33.9736C291.785 33.9736 291.455 34.1103 291.212 34.3536C290.968 34.5971 290.832 34.9271 290.832 35.2714C290.832 35.6154 290.969 35.9453 291.212 36.1886C291.456 36.4315 291.786 36.568 292.13 36.5677C292.474 36.5674 292.804 36.4303 293.047 36.1868C293.29 35.9432 293.427 35.613 293.426 35.269C293.426 34.9249 293.289 34.5953 293.046 34.3523C292.803 34.1094 292.473 33.9729 292.129 33.9735L292.129 33.9736Z" fill="white" fill-opacity="0.3"/>
<path d="M314.868 33.9735C314.524 33.9729 314.194 34.1094 313.95 34.3527C313.706 34.5959 313.57 34.9258 313.569 35.2701C313.569 35.6142 313.706 35.9444 313.949 36.1879C314.193 36.4312 314.523 36.568 314.867 36.5677C315.211 36.5677 315.541 36.4306 315.785 36.187C316.028 35.9435 316.164 35.613 316.163 35.2689C316.163 34.9255 316.026 34.5962 315.784 34.3535C315.541 34.1106 315.212 33.9738 314.868 33.9735L314.868 33.9735Z" fill="white" fill-opacity="0.3"/>
</g>
</g>
<defs>
<filter id="filter0_d_569_4885" x="-16" y="-8" width="386" height="100.601" filterUnits="userSpaceOnUse" color-interpolation-filters="sRGB">
<feFlood flood-opacity="0" result="BackgroundImageFix"/>
<feColorMatrix in="SourceAlpha" type="matrix" values="0 0 0 0 0 0 0 0 0 0 0 0 0 0 0 0 0 0 127 0" result="hardAlpha"/>
<feOffset dy="8"/>
<feGaussianBlur stdDeviation="8"/>
<feComposite in2="hardAlpha" operator="out"/>
<feColorMatrix type="matrix" values="0 0 0 0 0 0 0 0 0 0 0 0 0 0 0 0 0 0 0.15 0"/>
<feBlend mode="normal" in2="BackgroundImageFix" result="effect1_dropShadow_569_4885"/>
<feBlend mode="normal" in="SourceGraphic" in2="effect1_dropShadow_569_4885" result="shape"/>
</filter>
</defs>
</svg>
